<svg width="20" height="20" viewBox="0 0 20 20" fill="none" xmlns="http://www.w3.org/2000/svg">
<path d="M0.546528 17.8952L0.546943 17.8934C1.1387 15.3118 2.918 13.4424 5.81412 12.6091L8.92597 15.2147C8.92598 15.2147 8.92599 15.2147 8.926 15.2147C9.28039 15.5115 9.79653 15.5115 10.1509 15.2147L10.151 15.2147L13.2616 12.6091C16.1575 13.4425 17.9371 15.312 18.5288 17.8934L18.5292 17.8952C18.6122 18.2515 18.561 18.3704 18.5503 18.3901L18.5501 18.3905C18.5456 18.3989 18.528 18.4313 18.3981 18.4713L18.3981 18.4713C17.1897 18.8435 15.4369 19.1026 13.7349 19.2677C12.0402 19.4322 10.4341 19.5 9.53786 19.5C8.64163 19.5 7.03554 19.4322 5.34084 19.2677C3.63886 19.1026 1.88604 18.8435 0.67764 18.4713L0.677626 18.4713C0.547696 18.4313 0.530138 18.3989 0.525583 18.3904L0.525378 18.3901C0.514681 18.3704 0.463461 18.2515 0.546528 17.8952Z" stroke="#5F626B"/>
<path d="M5.00879 5.08251C5.00879 2.53797 7.03289 0.5 9.53791 0.5C12.0429 0.5 14.067 2.53797 14.067 5.08251V5.42613C14.067 7.97064 12.0429 10.0086 9.53791 10.0086C7.03289 10.0086 5.00879 7.97064 5.00879 5.42613V5.08251Z" stroke="#5F626B"/>
<path d="M17.17 7.83L17.2 7.17H18.69V12L17.9 12.04C17.9 11.3933 17.8867 10.61 17.86 9.69C17.8333 8.76333 17.8167 8.13667 17.81 7.81L17.17 7.83ZM18.88 6.03C18.88 6.21 18.8233 6.36 18.71 6.48C18.6033 6.6 18.4567 6.66 18.27 6.66C18.0833 6.66 17.9367 6.62 17.83 6.54C17.73 6.45333 17.68 6.33333 17.68 6.18C17.68 6.02 17.7433 5.88 17.87 5.76C17.9967 5.64 18.1633 5.58 18.37 5.58C18.71 5.58 18.88 5.73 18.88 6.03Z" fill="#5F626B"/>
</svg>
