<svg width="32" height="30" viewBox="0 0 32 30" fill="none" xmlns="http://www.w3.org/2000/svg">
<g clip-path="url(#clip0_345_462)">
<path d="M31.9247 29.98C30.0393 30.0006 28.1498 30.0053 26.2559 29.9941C26.242 29.994 26.2283 29.9903 26.2162 29.9833C26.204 29.9762 26.1939 29.9661 26.1867 29.9539L11.6577 5.02703C11.6388 4.99525 11.6388 4.96315 11.6577 4.93075L14.5194 0.01474C14.5218 0.010267 14.5254 0.00654495 14.5297 0.00395494C14.5341 0.00136493 14.539 0 14.544 0C14.549 0 14.5539 0.00136493 14.5582 0.00395494C14.5625 0.00654495 14.5661 0.010267 14.5686 0.01474L31.9921 29.9109C31.9959 29.9175 31.9985 29.9248 31.9995 29.9324C32.0006 29.94 32.0001 29.9478 31.9981 29.9552C31.9962 29.9626 31.9928 29.9695 31.9881 29.9756C31.9835 29.9816 31.9777 29.9866 31.9711 29.9903C31.9529 30.0009 31.9374 29.9975 31.9247 29.98Z" fill="#00A13A"/>
<path d="M14.5194 10.0421L11.6915 14.8982C11.6869 14.9062 11.6805 14.9129 11.6727 14.9175C11.6649 14.9222 11.6561 14.9247 11.6471 14.9248C11.6381 14.9249 11.6292 14.9226 11.6213 14.9181C11.6134 14.9136 11.6068 14.9071 11.6022 14.8992L8.75778 10.0523C8.75289 10.0442 8.7502 10.0349 8.75001 10.0254C8.74982 10.0159 8.75212 10.0065 8.75668 9.99815C8.76124 9.98984 8.76789 9.98294 8.77594 9.97817C8.78398 9.9734 8.79313 9.97093 8.80242 9.97102L14.4748 9.96167C14.484 9.96168 14.493 9.96418 14.5009 9.9689C14.5088 9.97363 14.5153 9.98041 14.5199 9.98857C14.5244 9.99674 14.5267 10.006 14.5267 10.0154C14.5266 10.0248 14.5241 10.034 14.5194 10.0421Z" fill="#F7C301"/>
<path d="M17.4098 15.0758L14.6046 19.8815C14.5985 19.8918 14.5899 19.9002 14.5797 19.9061C14.5695 19.912 14.558 19.9151 14.5462 19.9151C14.5345 19.9151 14.523 19.912 14.5128 19.9061C14.5026 19.9002 14.494 19.8918 14.4879 19.8815L11.6873 15.0926C11.6812 15.0824 11.6726 15.0739 11.6624 15.068C11.6522 15.0622 11.6407 15.0591 11.629 15.0591C11.6173 15.0591 11.6058 15.0622 11.5955 15.068C11.5853 15.0739 11.5768 15.0824 11.5707 15.0926L8.77364 19.8824C8.76754 19.8927 8.75897 19.9012 8.74876 19.907C8.73855 19.9129 8.72704 19.916 8.71533 19.916C8.70363 19.916 8.69212 19.9129 8.68191 19.907C8.6717 19.9012 8.66313 19.8927 8.65703 19.8824L5.86001 15.0889C5.85393 15.0783 5.85068 15.0662 5.85059 15.0539C5.85049 15.0416 5.85355 15.0295 5.85946 15.0188C5.86537 15.0081 5.87392 14.9992 5.88425 14.993C5.89458 14.9867 5.90633 14.9834 5.91832 14.9833L17.3506 14.9692C17.3628 14.9691 17.3748 14.9723 17.3854 14.9785C17.396 14.9847 17.4047 14.9937 17.4108 15.0046C17.4168 15.0155 17.4199 15.0278 17.4197 15.0404C17.4196 15.0529 17.4161 15.0651 17.4098 15.0758Z" fill="#F7C301"/>
<path d="M5.76565 24.9228L2.94403 20.0834C2.90455 20.0149 2.92368 19.9806 3.00143 19.9806L20.1944 19.9778C20.2132 19.9777 20.2317 19.9827 20.248 19.9923C20.2642 20.002 20.2777 20.0159 20.287 20.0326C20.2963 20.0494 20.301 20.0684 20.3008 20.0877C20.3005 20.107 20.2953 20.1258 20.2855 20.1423L17.5168 24.9059C17.5124 24.9135 17.51 24.9222 17.5099 24.931C17.5097 24.9398 17.5119 24.9485 17.5161 24.9561C17.5202 24.9638 17.5263 24.9701 17.5336 24.9744C17.541 24.9787 17.5493 24.9809 17.5578 24.9807L23.1081 24.9695C23.1221 24.9696 23.136 24.9729 23.1487 24.9792C23.1613 24.9855 23.1725 24.9946 23.1812 25.0059C23.19 25.0172 23.1961 25.0304 23.1992 25.0445C23.2023 25.0586 23.2023 25.0732 23.1992 25.0873C23.1767 25.1858 23.1342 25.2876 23.0716 25.393C22.18 26.8961 21.2999 28.3927 20.4313 29.8827C20.4252 29.893 20.4166 29.9014 20.4064 29.9073C20.3962 29.9132 20.3847 29.9163 20.373 29.9163C20.3613 29.9163 20.3498 29.9132 20.3396 29.9073C20.3294 29.9014 20.3208 29.893 20.3147 29.8827L17.5058 25.0761C17.5013 25.0683 17.4949 25.0619 17.4872 25.0575C17.4796 25.053 17.4709 25.0507 17.4621 25.0507C17.4533 25.0507 17.4446 25.053 17.437 25.0575C17.4293 25.0619 17.4229 25.0683 17.4184 25.0761L14.5949 29.8893C14.5895 29.8986 14.5818 29.9062 14.5727 29.9116C14.5635 29.9169 14.5531 29.9197 14.5425 29.9197C14.532 29.9197 14.5216 29.9169 14.5124 29.9116C14.5032 29.9062 14.4956 29.8986 14.4902 29.8893L11.6922 25.1013C11.6862 25.0909 11.6776 25.0822 11.6673 25.0762C11.657 25.0701 11.6453 25.067 11.6335 25.067C11.6216 25.067 11.61 25.0701 11.5997 25.0762C11.5893 25.0822 11.5807 25.0909 11.5747 25.1013L8.76675 29.8893C8.76121 29.8985 8.75344 29.9062 8.74419 29.9115C8.73494 29.9168 8.72451 29.9196 8.7139 29.9196C8.7033 29.9196 8.69287 29.9168 8.68362 29.9115C8.67436 29.9062 8.6666 29.8985 8.66106 29.8893L5.85949 25.092C5.85383 25.082 5.84576 25.0738 5.83607 25.068C5.82637 25.0623 5.81538 25.0592 5.80417 25.0591C5.79297 25.059 5.78193 25.0619 5.77214 25.0675C5.76235 25.0731 5.75415 25.0812 5.74834 25.091L2.92945 29.9033C2.92482 29.9109 2.91836 29.9172 2.9107 29.9216C2.90304 29.926 2.89444 29.9283 2.88574 29.9283C2.87703 29.9283 2.86852 29.926 2.86101 29.9216C2.85351 29.9172 2.84727 29.9109 2.8429 29.9033L0.00488477 25.0499C0.00170981 25.0443 2.63236e-05 25.0379 3.06159e-07 25.0314C-2.57113e-05 25.0248 0.00160692 25.0184 0.00473671 25.0128C0.0078665 25.0071 0.0123849 25.0024 0.0178442 24.999C0.0233035 24.9957 0.0295144 24.9939 0.0358619 24.9938L5.74014 24.9676C5.77476 24.9676 5.78326 24.9527 5.76565 24.9228ZM5.84036 24.9265C5.83763 24.9312 5.83614 24.9365 5.83606 24.9419C5.83598 24.9474 5.8373 24.9527 5.83989 24.9575C5.84248 24.9622 5.84625 24.9662 5.85081 24.9689C5.85537 24.9717 5.86057 24.9732 5.86587 24.9732H11.5692C11.5745 24.9732 11.5797 24.9717 11.5843 24.9689C11.5888 24.9662 11.5926 24.9622 11.5952 24.9575C11.5978 24.9527 11.5991 24.9474 11.599 24.9419C11.599 24.9365 11.5975 24.9312 11.5947 24.9265L8.74306 20.0339C8.74036 20.0294 8.7366 20.0258 8.73214 20.0232C8.72767 20.0207 8.72265 20.0193 8.71755 20.0193C8.71245 20.0193 8.70742 20.0207 8.70296 20.0232C8.6985 20.0258 8.69474 20.0294 8.69204 20.0339L5.84036 24.9265ZM17.3036 24.9798C17.34 25.0035 17.3698 25.0097 17.3929 24.9985C17.4281 24.9817 17.4357 24.9561 17.4156 24.9218L14.5876 20.0591C14.5835 20.0517 14.5775 20.0456 14.5703 20.0414C14.5631 20.0371 14.5549 20.0349 14.5466 20.0349C14.5383 20.0349 14.5302 20.0371 14.523 20.0414C14.5158 20.0456 14.5098 20.0517 14.5056 20.0591L11.6813 24.905C11.6769 24.9126 11.6746 24.9212 11.6746 24.9299C11.6745 24.9387 11.6767 24.9473 11.681 24.9549C11.6852 24.9626 11.6914 24.9689 11.6988 24.9732C11.7062 24.9776 11.7147 24.9799 11.7232 24.9798L17.269 24.9704C17.2815 24.9705 17.2934 24.9737 17.3036 24.9798Z" fill="#F7C301"/>
<path d="M5.84023 24.9267L8.69192 20.0341C8.69462 20.0296 8.69838 20.0259 8.70284 20.0234C8.7073 20.0209 8.71232 20.0195 8.71743 20.0195C8.72253 20.0195 8.72755 20.0209 8.73201 20.0234C8.73648 20.0259 8.74024 20.0296 8.74294 20.0341L11.5946 24.9267C11.5973 24.9314 11.5988 24.9367 11.5989 24.9421C11.599 24.9475 11.5977 24.9529 11.5951 24.9577C11.5925 24.9624 11.5887 24.9664 11.5842 24.9691C11.5796 24.9719 11.5744 24.9734 11.5691 24.9734H5.86574C5.86044 24.9734 5.85525 24.9719 5.85069 24.9691C5.84613 24.9664 5.84236 24.9624 5.83977 24.9577C5.83718 24.9529 5.83586 24.9475 5.83594 24.9421C5.83602 24.9367 5.8375 24.9314 5.84023 24.9267Z" fill="white"/>
<path d="M17.2692 24.9705L11.7235 24.9798C11.7149 24.9799 11.7065 24.9776 11.6991 24.9733C11.6916 24.9689 11.6855 24.9626 11.6812 24.955C11.677 24.9474 11.6748 24.9388 11.6748 24.93C11.6749 24.9212 11.6772 24.9126 11.6815 24.9051L14.5059 20.0592C14.5101 20.0518 14.516 20.0457 14.5232 20.0414C14.5304 20.0372 14.5386 20.0349 14.5469 20.0349C14.5552 20.0349 14.5634 20.0372 14.5706 20.0414C14.5777 20.0457 14.5837 20.0518 14.5879 20.0592L17.4159 24.9219C17.4359 24.9562 17.4283 24.9817 17.3931 24.9985C17.37 25.0098 17.3403 25.0035 17.3038 24.9798C17.2937 24.9737 17.2817 24.9705 17.2692 24.9705Z" fill="white"/>
</g>
<defs>
<clipPath id="clip0_345_462">
<rect width="32" height="30" fill="white"/>
</clipPath>
</defs>
</svg>
