<svg width="29" height="26" viewBox="0 0 29 26" fill="none" xmlns="http://www.w3.org/2000/svg">
<path d="M11.4311 24.4131C11.4751 24.485 11.5016 24.5661 11.5086 24.6501C11.5155 24.7341 11.5028 24.8185 11.4714 24.8967C11.4399 24.9748 11.3906 25.0446 11.3274 25.1003C11.2642 25.156 11.1889 25.1962 11.1074 25.2177L8.20028 25.9968L6.53821 19.7921L9.46655 19.0065C9.85868 20.841 10.222 22.4058 11.4311 24.4131ZM0.346799 15.8929C0.469944 16.3531 0.724472 16.7675 1.07928 17.0854C1.43409 17.4033 1.87382 17.611 2.34473 17.6831L1.18108 13.3443C0.80934 13.642 0.532443 14.0417 0.384271 14.4943C0.236098 14.947 0.223077 15.433 0.346799 15.8929ZM20.9707 7.32674L22.4906 12.9988C22.9712 12.6065 23.3283 12.0837 23.5188 11.4932C23.7094 10.9028 23.7254 10.2699 23.5648 9.67059C23.4042 9.0713 23.074 8.53115 22.6137 8.1151C22.1535 7.69904 21.5828 7.42479 20.9704 7.32533L20.9707 7.32674ZM27.9006 13.2872L25.3884 12.6126C25.2889 12.5885 25.1839 12.6043 25.0959 12.6567C25.0079 12.709 24.9438 12.7937 24.9175 12.8926C24.8912 12.9916 24.9046 13.0969 24.9549 13.1861C25.0053 13.2752 25.0885 13.3412 25.1868 13.3697L27.699 14.0426C27.7489 14.0569 27.8013 14.0612 27.8529 14.0551C27.9045 14.049 27.9544 14.0327 27.9996 14.0071C28.0448 13.9815 28.0845 13.9471 28.1163 13.906C28.1481 13.8649 28.1714 13.8178 28.1848 13.7676C28.1982 13.7174 28.2014 13.665 28.1944 13.6135C28.1873 13.562 28.17 13.5125 28.1435 13.4677C28.1171 13.423 28.0819 13.384 28.0402 13.353C27.9985 13.322 27.951 13.2996 27.9006 13.2872ZM23.6729 6.2137L25.5122 4.37437C25.5857 4.30093 25.6269 4.20132 25.6269 4.09745C25.6269 3.99359 25.5857 3.89398 25.5122 3.82053C25.4388 3.74709 25.3392 3.70583 25.2353 3.70583C25.1314 3.70583 25.0318 3.74709 24.9584 3.82053L23.119 5.65986C23.0456 5.73331 23.0043 5.83292 23.0043 5.93678C23.0043 6.04065 23.0456 6.14026 23.119 6.2137C23.1925 6.28714 23.2921 6.3284 23.396 6.3284C23.4998 6.3284 23.5994 6.28714 23.6729 6.2137ZM28.5194 8.34479C28.4924 8.24469 28.4268 8.15941 28.3369 8.10768C28.2471 8.05594 28.1404 8.04198 28.0402 8.06886L25.5583 8.73267C25.5086 8.74591 25.462 8.7688 25.4212 8.80005C25.3803 8.83129 25.346 8.87028 25.3202 8.91477C25.2945 8.95927 25.2777 9.00841 25.2709 9.05939C25.2641 9.11036 25.2674 9.16218 25.2807 9.21187C25.2939 9.26156 25.3168 9.30816 25.348 9.34901C25.3793 9.38986 25.4183 9.42415 25.4628 9.44993C25.5073 9.47571 25.5564 9.49247 25.6074 9.49926C25.6584 9.50605 25.7102 9.50273 25.7599 9.48949L28.2432 8.82314C28.2929 8.80989 28.3395 8.78696 28.3803 8.75567C28.4211 8.72438 28.4553 8.68533 28.4809 8.64078C28.5066 8.59623 28.5232 8.54705 28.5298 8.49606C28.5364 8.44507 28.5329 8.39328 28.5194 8.34366V8.34479ZM18.4687 1.01998C18.3744 0.667573 18.144 0.367056 17.8281 0.184538C17.5123 0.00202042 17.1368 -0.0475469 16.7844 0.0467407C16.432 0.141028 16.1315 0.371447 15.949 0.687307C15.7665 1.00317 15.7169 1.3786 15.8112 1.731L20.8228 20.4251C20.9194 20.7746 21.1502 21.0717 21.4649 21.2518C21.7795 21.4318 22.1526 21.4803 22.5028 21.3865C22.853 21.2928 23.152 21.0644 23.3346 20.7512C23.5173 20.438 23.5687 20.0653 23.4778 19.7144L18.4687 1.01998ZM9.30145 8.58651C9.33464 8.62828 9.35898 8.67638 9.37297 8.72787L11.7455 17.5861C11.7605 17.6382 11.7638 17.6929 11.7551 17.7464C13.2388 18.0291 17.2092 19.143 19.8707 19.8998L15.2336 2.59497C13.3389 4.5652 10.5346 7.53934 9.30145 8.58651ZM10.9901 17.7877L5.52469 19.2524C5.04244 19.38 4.52928 19.3117 4.09726 19.0622C3.66525 18.8128 3.34947 18.4026 3.21888 17.9211L1.81917 12.7014C1.69178 12.2192 1.76025 11.7061 2.00965 11.2741C2.25904 10.8422 2.66913 10.5264 3.15046 10.3956L8.61615 8.93085L10.9901 17.7877ZM3.91718 13.0664L7.84689 12.0127C7.89736 12.0003 7.94484 11.9779 7.98655 11.9469C8.02827 11.9159 8.06339 11.8769 8.08985 11.8321C8.11631 11.7874 8.13359 11.7379 8.14068 11.6864C8.14776 11.6349 8.14451 11.5825 8.13111 11.5323C8.11771 11.482 8.09443 11.435 8.06263 11.3939C8.03084 11.3528 7.99116 11.3184 7.94593 11.2928C7.9007 11.2672 7.85082 11.2509 7.7992 11.2448C7.74758 11.2387 7.69527 11.2429 7.64532 11.2573L3.71391 12.3096C3.66312 12.3218 3.61529 12.3441 3.57326 12.3751C3.53122 12.4062 3.49583 12.4453 3.46916 12.4902C3.44249 12.5351 3.42509 12.585 3.41799 12.6367C3.41088 12.6885 3.41422 12.7411 3.42779 12.7916C3.44137 12.8421 3.46491 12.8893 3.49703 12.9305C3.52915 12.9717 3.5692 13.006 3.61482 13.0315C3.66043 13.057 3.71068 13.0731 3.76262 13.0788C3.81455 13.0846 3.8671 13.0799 3.91718 13.065V13.0664ZM4.48515 15.1912L8.41769 14.1376C8.51809 14.1106 8.60366 14.0449 8.6556 13.9548C8.70753 13.8648 8.72156 13.7578 8.6946 13.6574C8.66765 13.557 8.60191 13.4714 8.51186 13.4195C8.42181 13.3675 8.31482 13.3535 8.21442 13.3805L4.28471 14.4344C4.18435 14.4612 4.09871 14.5267 4.04665 14.6165C3.99459 14.7064 3.98035 14.8133 4.00708 14.9136C4.03381 15.014 4.09932 15.0996 4.18918 15.1517C4.27905 15.2037 4.38592 15.218 4.48628 15.1912H4.48515ZM9.263 15.7816C9.2496 15.7319 9.22653 15.6853 9.19511 15.6445C9.16369 15.6037 9.12454 15.5696 9.0799 15.5439C9.03526 15.5183 8.98601 15.5017 8.93496 15.4952C8.88391 15.4886 8.83206 15.4921 8.78239 15.5056L4.85268 16.5593C4.80221 16.5717 4.75473 16.5941 4.71301 16.6251C4.6713 16.6561 4.63618 16.6951 4.60972 16.7399C4.58325 16.7846 4.56597 16.8342 4.55889 16.8856C4.55181 16.9371 4.55506 16.9895 4.56846 17.0397C4.58186 17.09 4.60514 17.137 4.63693 17.1781C4.66873 17.2192 4.7084 17.2536 4.75364 17.2792C4.79887 17.3048 4.84875 17.3211 4.90037 17.3272C4.95198 17.3333 5.0043 17.3291 5.05425 17.3147L8.98396 16.2608C9.03401 16.2478 9.08099 16.225 9.12219 16.1938C9.16339 16.1625 9.19799 16.1234 9.22399 16.0788C9.24998 16.0341 9.26687 15.9847 9.27366 15.9334C9.28046 15.8822 9.27702 15.8301 9.26356 15.7801L9.263 15.7816Z" fill="#3B456C"/>
</svg>
