<svg xmlns="http://www.w3.org/2000/svg" width="22" height="20" viewBox="0 0 22 20" fill="none">
  <path d="M11.0853 19.7182C11.5644 19.9065 12.0662 20 12.5457 20C13.0906 20 13.6067 19.8792 14.0276 19.6395C14.5317 19.3523 14.8538 18.9211 14.9316 18.4407L15.3637 16.2794C15.4245 15.9408 15.3512 15.6013 15.1843 15.2985H19.5298C20.5998 15.2985 21.4698 14.4285 21.4698 13.3585V5.52638C21.4698 4.45645 20.5998 3.58645 19.5298 3.58645H6.01835C6.01432 3.19775 6.02953 2.80771 6.06531 2.41946C6.14896 1.48282 5.61488 0.644585 4.81467 0.468797L2.67794 0.0416292C2.18859 -0.0755625 1.6666 0.0568371 1.20812 0.411543C0.487972 0.968875 0.0263623 1.99766 0.00399744 3.09666C-0.153898 10.3827 4.29939 17.0626 11.0853 19.7182ZM20.5752 13.359C20.5752 13.9356 20.1064 14.4043 19.5298 14.4043H14.3099V14.4924C14.2236 14.4517 14.135 14.4128 14.0406 14.3829C13.2829 14.1462 12.5489 13.8295 11.8578 13.4413C11.0643 12.9985 10.1031 13.1608 9.62132 13.817C9.61953 13.8193 9.61774 13.8215 9.6164 13.8237L9.03491 14.6485C6.49382 12.7319 4.68674 10.0217 3.89503 6.93939L4.88848 6.71798C5.15864 6.65222 5.39392 6.50864 5.5867 6.31765L11.198 11.0272C11.5536 11.3301 11.9996 11.4812 12.4455 11.4812C12.8915 11.4812 13.3348 11.3305 13.6881 11.0295L20.5416 5.27455C20.5617 5.35551 20.5756 5.43916 20.5756 5.52638V13.3585L20.5752 13.359ZM19.9731 4.58348L13.1102 10.346C12.7296 10.6698 12.157 10.6694 11.7742 10.3438L6.03668 5.52861C6.09886 5.29826 6.12391 5.0518 6.09439 4.79639C6.08186 4.69172 6.07515 4.58616 6.06576 4.48105H19.5298C19.6891 4.48105 19.838 4.51951 19.9731 4.58348ZM0.898143 3.1159C0.918271 2.11708 1.35439 1.42959 1.75516 1.11961C1.89427 1.01182 2.09466 0.89686 2.32636 0.89686C2.37825 0.89686 2.43192 0.902675 2.48649 0.915646L4.63039 1.34416C4.97793 1.42064 5.21679 1.8581 5.1743 2.33894C5.09602 3.19283 5.10676 4.05477 5.20606 4.90016C5.25749 5.34746 5.02535 5.76479 4.68496 5.84709L3.25629 6.16557C3.14044 6.19151 3.0398 6.26218 2.97584 6.36238C2.91232 6.46257 2.8913 6.58379 2.91679 6.69964C3.72685 10.325 5.8448 13.5017 8.88015 15.6438C8.97721 15.7122 9.09664 15.7395 9.21428 15.7189C9.33102 15.6988 9.43524 15.633 9.50368 15.536L10.3442 14.3435C10.5575 14.0568 11.0294 14.0035 11.4203 14.2223C12.1646 14.6405 12.9564 14.9818 13.7722 15.2367C14.2338 15.3826 14.5456 15.7713 14.4843 16.113L14.0509 18.2815C14.0044 18.5687 13.7713 18.7561 13.5844 18.8625C13.1438 19.1135 12.3418 19.2512 11.4114 18.8858C4.97301 16.3662 0.748299 10.0289 0.898143 3.1159Z" fill="#5F626B"/>
</svg>