<svg width="15" height="15" viewBox="0 0 20 20" fill="none" xmlns="http://www.w3.org/2000/svg">
<g id="Group">
<path id="Vector" d="M4.3 0.299999L0.3 4.3C-0.1 4.7 -0.1 5.3 0.3 5.7C0.7 6.1 1.3 6.1 1.7 5.7L4 3.4L4 14C4 14.6 4.4 15 5 15C5.6 15 6 14.6 6 14L6 3.4L8.3 5.7C8.7 6.1 9.3 6.1 9.7 5.7C10.1 5.3 10.1 4.7 9.7 4.3L5.7 0.299999C5.3 -0.100001 4.7 -0.100001 4.3 0.299999Z"  fill-opacity="0.4"/>
<path id="Vector_2" d="M14 6L14 16.6L11.7 14.3C11.3 13.9 10.7 13.9 10.3 14.3C9.9 14.7 9.9 15.3 10.3 15.7L14.3 19.7C14.7 20.1 15.3 20.1 15.7 19.7L19.7 15.7C20.1 15.3 20.1 14.7 19.7 14.3C19.3 13.9 18.7 13.9 18.3 14.3L16 16.6L16 6C16 5.4 15.6 5 15 5C14.4 5 14 5.4 14 6Z" />
</g>
</svg>
