<svg width="21" height="20" viewBox="0 0 21 20" fill="none" xmlns="http://www.w3.org/2000/svg">
<path d="M19.4368 8.40798L19.4367 8.40807L19.4454 8.41512C19.4676 8.43307 19.486 8.45527 19.4995 8.48042C19.513 8.50558 19.5213 8.53319 19.524 8.56161C19.5267 8.59003 19.5237 8.6187 19.5151 8.64595C19.5066 8.67319 19.4927 8.69845 19.4742 8.72024C19.4558 8.74203 19.4332 8.75991 19.4077 8.77283C19.3823 8.78576 19.3545 8.79347 19.326 8.79551C19.2975 8.79755 19.2689 8.79388 19.2419 8.78471C19.2148 8.77555 19.1899 8.76107 19.1685 8.74213L19.1686 8.74203L19.1599 8.73465L18.1927 7.91606L17.3697 7.21948V8.29772V17.8571C17.3697 18.2928 17.1966 18.7107 16.8885 19.0188C16.5804 19.3269 16.1626 19.5 15.7268 19.5H13.584C13.3377 19.5 13.1015 19.4022 12.9274 19.228C12.7532 19.0539 12.6554 18.8177 12.6554 18.5714V14.2856C12.6554 13.9636 12.5274 13.6547 12.2997 13.427C12.072 13.1993 11.7631 13.0714 11.4411 13.0714H8.5839C8.26185 13.0714 7.95299 13.1993 7.72527 13.427C7.49754 13.6547 7.36961 13.9636 7.36961 14.2856V18.5714C7.36961 18.8177 7.27177 19.0539 7.09763 19.228C6.92349 19.4022 6.6873 19.5 6.44102 19.5H4.29814C3.86242 19.5 3.44454 19.3269 3.13644 19.0188C2.82834 18.7107 2.65525 18.2928 2.65525 17.8571V8.29772V7.21947L1.83223 7.91606L0.865078 8.73465L0.864994 8.73455L0.856441 8.74213C0.835074 8.76107 0.810138 8.77555 0.7831 8.78471C0.756061 8.79388 0.727463 8.79755 0.698986 8.79551C0.670505 8.79347 0.642722 8.78576 0.617268 8.77284C0.591813 8.75991 0.569196 8.74203 0.550746 8.72023C0.532297 8.69844 0.518389 8.67319 0.509838 8.64595L0.0333325 8.79553L0.509837 8.64595C0.501287 8.61871 0.498265 8.59003 0.50095 8.56161C0.503635 8.53319 0.511973 8.50559 0.525476 8.48043C0.538976 8.45527 0.557368 8.43307 0.579573 8.41512L0.579652 8.41521L0.588203 8.40798L9.87403 0.55074L9.87406 0.550716C9.91275 0.517969 9.9618 0.5 10.0125 0.5C10.0632 0.5 10.1122 0.51797 10.1509 0.550715L10.151 0.55074L19.4368 8.40798Z" stroke="#5F626B"/>
</svg>
