<svg width="70" height="70" viewBox="0 0 70 70" fill="none" xmlns="http://www.w3.org/2000/svg">
<g id="instagram-round-color-icon 1" clip-path="url(#clip0_343_431)">
<path id="Vector" fill-rule="evenodd" clip-rule="evenodd" d="M35.0001 0C54.3302 0 70.0002 15.67 70.0002 35.0001C70.0002 54.3302 54.3302 70.0002 35.0001 70.0002C15.67 70.0002 0 54.3302 0 35.0001C0 15.67 15.67 0 35.0001 0ZM26.4653 14.9858H43.5358C49.9462 14.9858 55.1885 20.1632 55.1885 26.488V43.5125C55.1885 49.8387 49.9462 55.0144 43.536 55.0144L26.4653 55.0142C20.0548 55.0142 14.8119 49.8385 14.8119 43.5123V26.4877C14.8119 20.1632 20.0548 14.9858 26.4653 14.9858ZM34.8915 24.1929C41.1208 24.1929 46.1757 29.248 46.1757 35.4772C46.1757 41.7073 41.1208 46.7616 34.8915 46.7616C28.6604 46.7616 23.6063 41.7073 23.6063 35.4772C23.6063 29.248 28.6606 24.1929 34.8915 24.1929ZM34.8915 28.0044C39.0166 28.0044 42.3646 31.3516 42.3646 35.4772C42.3646 39.6031 39.0166 42.9509 34.8915 42.9509C30.765 42.9509 27.4176 39.6029 27.4176 35.4772C27.4176 31.3516 30.765 28.0044 34.8915 28.0044ZM45.8086 22.6288C46.8206 22.6288 47.6411 23.4493 47.6411 24.4602C47.6411 25.4722 46.8206 26.2927 45.8086 26.2927C44.7975 26.2927 43.9772 25.4722 43.9772 24.4602C43.9772 23.449 44.7977 22.6288 45.8086 22.6288ZM27.8603 18.2555H42.1422C47.505 18.2555 51.8908 22.6198 51.8908 27.9529V42.3064C51.8908 47.6394 47.505 52.003 42.1422 52.003L27.8603 52.0032C22.4975 52.0032 18.1108 47.6398 18.1108 42.3066V27.9527C18.1108 22.6198 22.4975 18.2555 27.8603 18.2555Z" fill="url(#paint0_linear_343_431)"/>
</g>
<defs>
<linearGradient id="paint0_linear_343_431" x1="52.5381" y1="64.7212" x2="17.462" y2="5.27878" gradientUnits="userSpaceOnUse">
<stop stop-color="#F58529"/>
<stop offset="0.169" stop-color="#FEDA77"/>
<stop offset="0.478" stop-color="#DD2A7B"/>
<stop offset="0.78" stop-color="#8134AF"/>
<stop offset="1" stop-color="#515BD4"/>
</linearGradient>
<clipPath id="clip0_343_431">
<rect width="70" height="70" fill="white"/>
</clipPath>
</defs>
</svg>
