<svg width="466" height="206" viewBox="0 0 466 206" fill="none" xmlns="http://www.w3.org/2000/svg">
<g filter="url(#filter0_b_327_139)">
<path d="M3 43C3 20.9086 20.9086 3 43 3H423C445.091 3 463 20.9086 463 43V163C463 185.091 445.091 203 423 203H43C20.9086 203 3 185.091 3 163V43Z" fill="black" fill-opacity="0.6"/>
<path d="M43 1.5C20.0802 1.5 1.5 20.0802 1.5 43V163C1.5 185.92 20.0802 204.5 43 204.5H423C445.92 204.5 464.5 185.92 464.5 163V43C464.5 20.0802 445.92 1.5 423 1.5H43Z" stroke="white" stroke-width="3"/>
</g>
<path d="M125.152 58V36.1818H129.104V45.4183H139.214V36.1818H143.178V58H139.214V48.7315H129.104V58H125.152ZM160.87 58H153.476V36.1818H161.019C163.185 36.1818 165.046 36.6186 166.601 37.4922C168.164 38.3587 169.364 39.6051 170.202 41.2315C171.04 42.858 171.459 44.804 171.459 47.0696C171.459 49.3423 171.037 51.2955 170.191 52.929C169.353 54.5625 168.142 55.8161 166.559 56.6896C164.982 57.5632 163.086 58 160.87 58ZM157.429 54.5803H160.678C162.198 54.5803 163.466 54.3033 164.481 53.7493C165.497 53.1882 166.26 52.3537 166.772 51.2457C167.283 50.1307 167.539 48.7386 167.539 47.0696C167.539 45.4006 167.283 44.0156 166.772 42.9148C166.26 41.8068 165.504 40.9794 164.502 40.4325C163.508 39.8786 162.272 39.6016 160.795 39.6016H157.429V54.5803ZM181.214 58V36.1818H195.192V39.495H185.167V45.4183H194.233V48.7315H185.167V58H181.214ZM223.468 43.5433H219.484C219.37 42.8899 219.161 42.3111 218.855 41.8068C218.55 41.2955 218.17 40.8622 217.715 40.5071C217.261 40.152 216.742 39.8857 216.16 39.7081C215.585 39.5234 214.963 39.4311 214.295 39.4311C213.109 39.4311 212.058 39.7294 211.142 40.326C210.226 40.9155 209.509 41.782 208.99 42.9254C208.472 44.0618 208.212 45.4503 208.212 47.0909C208.212 48.7599 208.472 50.1662 208.99 51.3097C209.516 52.446 210.233 53.3054 211.142 53.8878C212.058 54.4631 213.106 54.7507 214.285 54.7507C214.938 54.7507 215.549 54.6655 216.117 54.495C216.692 54.3175 217.207 54.0582 217.662 53.7173C218.124 53.3764 218.511 52.9574 218.823 52.4602C219.143 51.9631 219.363 51.3949 219.484 50.7557L223.468 50.777C223.319 51.8139 222.996 52.7869 222.499 53.696C222.009 54.6051 221.366 55.4077 220.57 56.1037C219.775 56.7926 218.844 57.3324 217.779 57.723C216.714 58.1065 215.531 58.2983 214.232 58.2983C212.314 58.2983 210.602 57.8544 209.097 56.9666C207.591 56.0788 206.405 54.7969 205.538 53.1207C204.672 51.4446 204.239 49.4347 204.239 47.0909C204.239 44.7401 204.675 42.7301 205.549 41.0611C206.423 39.3849 207.612 38.103 209.118 37.2152C210.624 36.3274 212.328 35.8835 214.232 35.8835C215.446 35.8835 216.575 36.054 217.619 36.3949C218.663 36.7358 219.594 37.2365 220.411 37.897C221.227 38.5504 221.898 39.353 222.424 40.3047C222.957 41.2493 223.305 42.3288 223.468 43.5433Z" fill="white"/>
<path d="M301.194 129.509L300.437 132.3H286.3L287.067 129.509H301.194ZM294.088 146L286.631 137.03L286.62 134.665H290.306C291.187 134.665 291.922 134.519 292.511 134.228C293.108 133.93 293.559 133.514 293.864 132.982C294.177 132.442 294.333 131.81 294.333 131.085C294.333 129.999 294.013 129.125 293.374 128.464C292.735 127.804 291.712 127.474 290.306 127.474H286.3L287.131 124.182H290.306C292.096 124.182 293.577 124.459 294.748 125.013C295.927 125.56 296.808 126.334 297.39 127.335C297.98 128.337 298.275 129.509 298.275 130.851C298.275 132.037 298.058 133.095 297.625 134.026C297.192 134.956 296.51 135.719 295.579 136.316C294.649 136.913 293.431 137.31 291.925 137.509L291.797 137.552L298.53 145.808V146H294.088ZM301.215 124.182L300.437 127.016L288.974 126.973L289.752 124.182H301.215ZM304.912 146L314.191 127.634V127.484H303.42V124.182H318.282V127.559L309.013 146H304.912ZM322.54 143.017L322.402 144.189C322.303 145.084 322.125 145.993 321.869 146.916C321.621 147.847 321.358 148.702 321.081 149.484C320.804 150.265 320.58 150.879 320.41 151.327H317.81C317.91 150.893 318.045 150.304 318.215 149.558C318.393 148.813 318.563 147.974 318.727 147.044C318.89 146.114 319 145.169 319.057 144.21L319.131 143.017H322.54ZM326.818 146V143.145L334.392 135.719C335.117 134.988 335.721 134.338 336.203 133.77C336.686 133.202 337.049 132.651 337.29 132.119C337.532 131.586 337.652 131.018 337.652 130.414C337.652 129.725 337.496 129.136 337.184 128.646C336.871 128.148 336.441 127.765 335.895 127.495C335.348 127.225 334.726 127.09 334.03 127.09C333.313 127.09 332.684 127.239 332.145 127.538C331.605 127.829 331.186 128.244 330.887 128.784C330.596 129.324 330.451 129.967 330.451 130.712H326.69C326.69 129.327 327.006 128.124 327.638 127.101C328.27 126.078 329.14 125.286 330.248 124.725C331.363 124.164 332.642 123.884 334.083 123.884C335.547 123.884 336.832 124.157 337.94 124.704C339.048 125.251 339.907 126 340.518 126.952C341.136 127.903 341.445 128.99 341.445 130.212C341.445 131.028 341.289 131.831 340.976 132.619C340.664 133.408 340.113 134.281 339.325 135.24C338.544 136.199 337.446 137.36 336.033 138.724L332.272 142.548V142.697H341.775V146H326.818ZM353.036 146.298C351.615 146.298 350.344 146.032 349.222 145.499C348.1 144.96 347.208 144.221 346.548 143.283C345.895 142.346 345.547 141.273 345.504 140.066H349.339C349.41 140.961 349.797 141.692 350.5 142.261C351.203 142.822 352.049 143.102 353.036 143.102C353.81 143.102 354.499 142.925 355.103 142.57C355.706 142.214 356.182 141.721 356.53 141.089C356.878 140.457 357.049 139.736 357.042 138.926C357.049 138.102 356.875 137.371 356.52 136.732C356.164 136.092 355.678 135.592 355.06 135.229C354.442 134.86 353.732 134.675 352.929 134.675C352.276 134.668 351.633 134.789 351.001 135.038C350.369 135.286 349.868 135.613 349.499 136.018L345.93 135.432L347.07 124.182H359.726V127.484H350.341L349.712 133.269H349.84C350.245 132.793 350.816 132.399 351.555 132.087C352.294 131.767 353.103 131.607 353.984 131.607C355.305 131.607 356.484 131.92 357.521 132.545C358.558 133.163 359.375 134.015 359.971 135.102C360.568 136.188 360.866 137.431 360.866 138.83C360.866 140.272 360.532 141.558 359.865 142.687C359.204 143.809 358.284 144.693 357.105 145.339C355.934 145.979 354.577 146.298 353.036 146.298ZM364.435 146V143.145L372.01 135.719C372.734 134.988 373.338 134.338 373.821 133.77C374.304 133.202 374.666 132.651 374.907 132.119C375.149 131.586 375.27 131.018 375.27 130.414C375.27 129.725 375.113 129.136 374.801 128.646C374.488 128.148 374.059 127.765 373.512 127.495C372.965 127.225 372.343 127.09 371.647 127.09C370.93 127.09 370.301 127.239 369.762 127.538C369.222 127.829 368.803 128.244 368.505 128.784C368.213 129.324 368.068 129.967 368.068 130.712H364.307C364.307 129.327 364.623 128.124 365.255 127.101C365.887 126.078 366.757 125.286 367.865 124.725C368.98 124.164 370.259 123.884 371.701 123.884C373.164 123.884 374.449 124.157 375.557 124.704C376.665 125.251 377.525 126 378.135 126.952C378.753 127.903 379.062 128.99 379.062 130.212C379.062 131.028 378.906 131.831 378.593 132.619C378.281 133.408 377.73 134.281 376.942 135.24C376.161 136.199 375.064 137.36 373.65 138.724L369.89 142.548V142.697H379.392V146H364.435ZM385.486 146.234C384.84 146.234 384.286 146.007 383.824 145.553C383.363 145.098 383.135 144.544 383.142 143.891C383.135 143.251 383.363 142.705 383.824 142.25C384.286 141.795 384.84 141.568 385.486 141.568C386.111 141.568 386.654 141.795 387.116 142.25C387.585 142.705 387.823 143.251 387.83 143.891C387.823 144.324 387.709 144.718 387.489 145.073C387.276 145.428 386.992 145.712 386.637 145.925C386.289 146.131 385.905 146.234 385.486 146.234ZM398.984 146.415C397.23 146.415 395.724 145.972 394.467 145.084C393.217 144.189 392.255 142.9 391.58 141.217C390.912 139.526 390.578 137.491 390.578 135.112C390.586 132.733 390.923 130.709 391.591 129.04C392.265 127.364 393.228 126.085 394.478 125.205C395.735 124.324 397.237 123.884 398.984 123.884C400.731 123.884 402.233 124.324 403.49 125.205C404.748 126.085 405.71 127.364 406.377 129.04C407.052 130.716 407.39 132.74 407.39 135.112C407.39 137.499 407.052 139.537 406.377 141.227C405.71 142.911 404.748 144.196 403.49 145.084C402.24 145.972 400.738 146.415 398.984 146.415ZM398.984 143.081C400.348 143.081 401.424 142.41 402.212 141.067C403.007 139.718 403.405 137.733 403.405 135.112C403.405 133.379 403.224 131.923 402.862 130.744C402.5 129.565 401.988 128.678 401.328 128.081C400.667 127.477 399.886 127.175 398.984 127.175C397.627 127.175 396.555 127.85 395.767 129.2C394.978 130.542 394.581 132.513 394.574 135.112C394.566 136.852 394.74 138.315 395.096 139.501C395.458 140.687 395.969 141.582 396.63 142.186C397.29 142.783 398.075 143.081 398.984 143.081ZM418.994 146.415C417.24 146.415 415.734 145.972 414.477 145.084C413.227 144.189 412.264 142.9 411.59 141.217C410.922 139.526 410.588 137.491 410.588 135.112C410.595 132.733 410.933 130.709 411.6 129.04C412.275 127.364 413.237 126.085 414.487 125.205C415.744 124.324 417.247 123.884 418.994 123.884C420.741 123.884 422.243 124.324 423.5 125.205C424.757 126.085 425.72 127.364 426.387 129.04C427.062 130.716 427.399 132.74 427.399 135.112C427.399 137.499 427.062 139.537 426.387 141.227C425.72 142.911 424.757 144.196 423.5 145.084C422.25 145.972 420.748 146.415 418.994 146.415ZM418.994 143.081C420.357 143.081 421.433 142.41 422.222 141.067C423.017 139.718 423.415 137.733 423.415 135.112C423.415 133.379 423.234 131.923 422.872 130.744C422.509 129.565 421.998 128.678 421.338 128.081C420.677 127.477 419.896 127.175 418.994 127.175C417.637 127.175 416.565 127.85 415.776 129.2C414.988 130.542 414.59 132.513 414.583 135.112C414.576 136.852 414.75 138.315 415.105 139.501C415.468 140.687 415.979 141.582 416.639 142.186C417.3 142.783 418.085 143.081 418.994 143.081Z" fill="white"/>
<path d="M124.761 83V68.4545H126.523V74.9318H134.278V68.4545H136.04V83H134.278V76.4943H126.523V83H124.761ZM144.055 83H139.566V68.4545H144.254C145.665 68.4545 146.872 68.7457 147.876 69.3281C148.879 69.9058 149.649 70.7367 150.184 71.821C150.719 72.9006 150.987 74.1932 150.987 75.6989C150.987 77.214 150.717 78.5185 150.177 79.6122C149.637 80.7012 148.851 81.5393 147.819 82.1264C146.787 82.7088 145.532 83 144.055 83ZM141.327 81.4375H143.941C145.144 81.4375 146.14 81.2055 146.931 80.7415C147.722 80.2775 148.311 79.617 148.7 78.7599C149.088 77.9029 149.282 76.8826 149.282 75.6989C149.282 74.5246 149.09 73.5137 148.707 72.6662C148.323 71.8139 147.75 71.1605 146.988 70.706C146.226 70.2467 145.276 70.017 144.14 70.017H141.327V81.4375ZM153.941 83V68.4545H162.663V70.017H155.702V74.9318H162.009V76.4943H155.702V83H153.941ZM177.384 73H175.623C175.518 72.4934 175.336 72.0483 175.076 71.6648C174.82 71.2812 174.507 70.9593 174.138 70.6989C173.774 70.4337 173.369 70.2348 172.924 70.1023C172.479 69.9697 172.015 69.9034 171.532 69.9034C170.651 69.9034 169.853 70.1259 169.138 70.571C168.428 71.0161 167.862 71.6719 167.441 72.5384C167.024 73.4048 166.816 74.4678 166.816 75.7273C166.816 76.9867 167.024 78.0497 167.441 78.9162C167.862 79.7827 168.428 80.4384 169.138 80.8835C169.853 81.3286 170.651 81.5511 171.532 81.5511C172.015 81.5511 172.479 81.4848 172.924 81.3523C173.369 81.2197 173.774 81.0232 174.138 80.7628C174.507 80.4976 174.82 80.1733 175.076 79.7898C175.336 79.4015 175.518 78.9564 175.623 78.4545H177.384C177.251 79.1979 177.01 79.8632 176.659 80.4503C176.309 81.0374 175.873 81.5369 175.353 81.9489C174.832 82.3561 174.247 82.6662 173.598 82.8793C172.954 83.0923 172.266 83.1989 171.532 83.1989C170.291 83.1989 169.188 82.8958 168.222 82.2898C167.256 81.6837 166.496 80.822 165.942 79.7045C165.388 78.5871 165.111 77.2614 165.111 75.7273C165.111 74.1932 165.388 72.8674 165.942 71.75C166.496 70.6326 167.256 69.7708 168.222 69.1648C169.188 68.5587 170.291 68.2557 171.532 68.2557C172.266 68.2557 172.954 68.3622 173.598 68.5753C174.247 68.7884 174.832 69.1009 175.353 69.5128C175.873 69.92 176.309 70.4171 176.659 71.0043C177.01 71.5866 177.251 72.2519 177.384 73ZM185.855 83V68.4545H190.94C191.954 68.4545 192.789 68.6297 193.447 68.9801C194.106 69.3258 194.596 69.7921 194.918 70.3793C195.24 70.9616 195.401 71.608 195.401 72.3182C195.401 72.9432 195.289 73.4593 195.067 73.8665C194.849 74.2737 194.56 74.5956 194.2 74.8324C193.845 75.0691 193.459 75.2443 193.043 75.358V75.5C193.488 75.5284 193.935 75.6847 194.385 75.9688C194.835 76.2528 195.211 76.66 195.514 77.1903C195.817 77.7206 195.969 78.3693 195.969 79.1364C195.969 79.8655 195.803 80.5213 195.472 81.1037C195.14 81.6861 194.617 82.1477 193.902 82.4886C193.187 82.8295 192.257 83 191.111 83H185.855ZM187.616 81.4375H191.111C192.261 81.4375 193.078 81.215 193.561 80.7699C194.049 80.3201 194.293 79.7756 194.293 79.1364C194.293 78.6439 194.167 78.1894 193.916 77.7727C193.665 77.3513 193.308 77.0152 192.844 76.7642C192.38 76.5085 191.83 76.3807 191.196 76.3807H187.616V81.4375ZM187.616 74.8466H190.884C191.414 74.8466 191.892 74.7424 192.318 74.5341C192.749 74.3258 193.09 74.0322 193.341 73.6534C193.597 73.2746 193.724 72.8295 193.724 72.3182C193.724 71.679 193.502 71.1368 193.057 70.6918C192.612 70.242 191.906 70.017 190.94 70.017H187.616V74.8466ZM201.846 83.2557C201.155 83.2557 200.527 83.1255 199.964 82.8651C199.4 82.5999 198.953 82.2188 198.621 81.7216C198.29 81.2197 198.124 80.6136 198.124 79.9034C198.124 79.2784 198.247 78.7718 198.494 78.3835C198.74 77.9905 199.069 77.6828 199.481 77.4602C199.893 77.2377 200.347 77.072 200.844 76.9631C201.346 76.8494 201.851 76.7595 202.357 76.6932C203.02 76.608 203.558 76.544 203.969 76.5014C204.386 76.4541 204.689 76.3759 204.879 76.267C205.073 76.1581 205.17 75.9687 205.17 75.6989V75.642C205.17 74.9413 204.978 74.3968 204.594 74.0085C204.216 73.6203 203.64 73.4261 202.869 73.4261C202.068 73.4261 201.441 73.6013 200.987 73.9517C200.532 74.3021 200.212 74.6761 200.028 75.0739L198.437 74.5057C198.721 73.8428 199.1 73.3267 199.573 72.9574C200.051 72.5833 200.572 72.3229 201.136 72.1761C201.704 72.0246 202.263 71.9489 202.812 71.9489C203.162 71.9489 203.565 71.9915 204.019 72.0767C204.478 72.1572 204.921 72.3253 205.347 72.581C205.778 72.8366 206.136 73.2225 206.42 73.7386C206.704 74.2547 206.846 74.946 206.846 75.8125V83H205.17V81.5227H205.085C204.971 81.7595 204.781 82.0128 204.516 82.2827C204.251 82.5526 203.898 82.7822 203.458 82.9716C203.018 83.161 202.48 83.2557 201.846 83.2557ZM202.102 81.75C202.764 81.75 203.323 81.6198 203.778 81.3594C204.237 81.099 204.583 80.7628 204.815 80.3509C205.051 79.9389 205.17 79.5057 205.17 79.0511V77.517C205.099 77.6023 204.942 77.6804 204.701 77.7514C204.464 77.8177 204.19 77.8769 203.877 77.929C203.569 77.9763 203.269 78.0189 202.975 78.0568C202.686 78.09 202.452 78.1184 202.272 78.142C201.836 78.1989 201.429 78.2912 201.05 78.419C200.676 78.5421 200.373 78.7292 200.141 78.9801C199.914 79.2263 199.8 79.5625 199.8 79.9886C199.8 80.571 200.016 81.0114 200.447 81.3097C200.882 81.6032 201.434 81.75 202.102 81.75ZM211.581 76.4375V83H209.905V72.0909H211.525V73.7955H211.667C211.922 73.2415 212.31 72.7964 212.831 72.4602C213.352 72.1193 214.025 71.9489 214.848 71.9489C215.587 71.9489 216.233 72.1004 216.787 72.4034C217.341 72.7017 217.772 73.1562 218.08 73.767C218.388 74.3731 218.542 75.1402 218.542 76.0682V83H216.865V76.1818C216.865 75.3248 216.643 74.6572 216.198 74.179C215.753 73.696 215.142 73.4545 214.365 73.4545C213.83 73.4545 213.352 73.5705 212.931 73.8026C212.514 74.0346 212.185 74.3731 211.944 74.8182C211.702 75.2633 211.581 75.803 211.581 76.4375ZM223.167 79.0227L223.138 76.9489H223.479L228.252 72.0909H230.326L225.241 77.233H225.099L223.167 79.0227ZM221.604 83V68.4545H223.281V83H221.604ZM228.536 83L224.275 77.6023L225.468 76.4375L230.667 83H228.536ZM238.336 83V68.4545H240.097V81.4375H246.858V83H238.336ZM253.653 72.0909V73.5114H248V72.0909H253.653ZM249.648 69.4773H251.324V79.875C251.324 80.3485 251.393 80.7036 251.53 80.9403C251.672 81.1723 251.852 81.3286 252.07 81.4091C252.292 81.4848 252.527 81.5227 252.773 81.5227C252.957 81.5227 253.109 81.5133 253.227 81.4943C253.346 81.4706 253.44 81.4517 253.511 81.4375L253.852 82.9432C253.739 82.9858 253.58 83.0284 253.376 83.071C253.173 83.1184 252.915 83.142 252.602 83.142C252.129 83.142 251.665 83.0402 251.21 82.8366C250.76 82.633 250.386 82.3229 250.088 81.9062C249.795 81.4896 249.648 80.964 249.648 80.3295V69.4773ZM260.177 83.2273C259.268 83.2273 258.465 82.9976 257.769 82.5384C257.073 82.0743 256.529 81.4209 256.136 80.5781C255.743 79.7306 255.546 78.7292 255.546 77.5739C255.546 76.428 255.743 75.4337 256.136 74.5909C256.529 73.7481 257.076 73.0971 257.776 72.6378C258.477 72.1785 259.287 71.9489 260.205 71.9489C260.915 71.9489 261.477 72.0672 261.888 72.304C262.305 72.536 262.622 72.8011 262.84 73.0994C263.063 73.393 263.236 73.6345 263.359 73.8239H263.501V68.4545H265.177V83H263.558V81.3239H263.359C263.236 81.5227 263.06 81.7737 262.833 82.0767C262.606 82.375 262.281 82.6425 261.86 82.8793C261.439 83.1113 260.878 83.2273 260.177 83.2273ZM260.404 81.7216C261.076 81.7216 261.645 81.5464 262.109 81.196C262.573 80.8409 262.925 80.3509 263.167 79.7259C263.408 79.0961 263.529 78.3693 263.529 77.5455C263.529 76.7311 263.411 76.0185 263.174 75.4077C262.937 74.7921 262.587 74.3139 262.123 73.973C261.659 73.6274 261.086 73.4545 260.404 73.4545C259.694 73.4545 259.102 73.6368 258.629 74.0014C258.16 74.3613 257.807 74.8513 257.57 75.4716C257.338 76.0871 257.222 76.7784 257.222 77.5455C257.222 78.322 257.341 79.0275 257.577 79.6619C257.819 80.2917 258.174 80.7936 258.643 81.1676C259.116 81.5369 259.703 81.7216 260.404 81.7216Z" fill="white"/>
<path d="M393.194 175.443V166.068H394.785V175.443H393.194ZM389.302 171.551V169.96H398.677V171.551H389.302ZM406.633 178.199C405.8 178.199 405.049 178.033 404.382 177.702C403.714 177.37 403.179 176.916 402.777 176.338C402.374 175.76 402.154 175.102 402.116 174.364H403.821C403.887 175.022 404.185 175.566 404.716 175.997C405.251 176.423 405.89 176.636 406.633 176.636C407.23 176.636 407.76 176.497 408.224 176.217C408.693 175.938 409.06 175.554 409.325 175.067C409.595 174.574 409.73 174.018 409.73 173.398C409.73 172.763 409.59 172.197 409.311 171.7C409.036 171.198 408.657 170.803 408.174 170.514C407.691 170.225 407.14 170.079 406.52 170.074C406.074 170.069 405.618 170.138 405.149 170.28C404.68 170.417 404.294 170.595 403.991 170.812L402.343 170.614L403.224 163.455H410.781V165.017H404.701L404.19 169.307H404.275C404.574 169.07 404.948 168.874 405.397 168.717C405.847 168.561 406.316 168.483 406.804 168.483C407.694 168.483 408.487 168.696 409.183 169.122C409.884 169.544 410.433 170.121 410.831 170.855C411.233 171.589 411.434 172.427 411.434 173.369C411.434 174.297 411.226 175.126 410.809 175.855C410.397 176.58 409.829 177.152 409.105 177.574C408.38 177.991 407.556 178.199 406.633 178.199ZM421.67 175.273V174.506C421.67 173.975 421.779 173.49 421.997 173.05C422.22 172.605 422.542 172.25 422.963 171.984C423.389 171.714 423.905 171.58 424.511 171.58C425.127 171.58 425.643 171.714 426.06 171.984C426.476 172.25 426.791 172.605 427.004 173.05C427.217 173.49 427.324 173.975 427.324 174.506V175.273C427.324 175.803 427.215 176.291 426.997 176.736C426.784 177.176 426.467 177.531 426.045 177.801C425.629 178.066 425.117 178.199 424.511 178.199C423.896 178.199 423.377 178.066 422.956 177.801C422.535 177.531 422.215 177.176 421.997 176.736C421.779 176.291 421.67 175.803 421.67 175.273ZM423.119 174.506V175.273C423.119 175.713 423.223 176.108 423.432 176.459C423.64 176.804 424 176.977 424.511 176.977C425.009 176.977 425.359 176.804 425.562 176.459C425.771 176.108 425.875 175.713 425.875 175.273V174.506C425.875 174.065 425.776 173.672 425.577 173.327C425.378 172.976 425.023 172.801 424.511 172.801C424.014 172.801 423.657 172.976 423.439 173.327C423.226 173.672 423.119 174.065 423.119 174.506ZM414.426 166.949V166.182C414.426 165.652 414.535 165.166 414.753 164.726C414.975 164.281 415.297 163.926 415.719 163.661C416.145 163.391 416.661 163.256 417.267 163.256C417.883 163.256 418.399 163.391 418.815 163.661C419.232 163.926 419.547 164.281 419.76 164.726C419.973 165.166 420.08 165.652 420.08 166.182V166.949C420.08 167.479 419.971 167.967 419.753 168.412C419.54 168.852 419.223 169.207 418.801 169.477C418.384 169.742 417.873 169.875 417.267 169.875C416.652 169.875 416.133 169.742 415.712 169.477C415.29 169.207 414.971 168.852 414.753 168.412C414.535 167.967 414.426 167.479 414.426 166.949ZM415.875 166.182V166.949C415.875 167.389 415.979 167.785 416.188 168.135C416.396 168.481 416.756 168.653 417.267 168.653C417.764 168.653 418.115 168.481 418.318 168.135C418.527 167.785 418.631 167.389 418.631 166.949V166.182C418.631 165.741 418.531 165.348 418.332 165.003C418.134 164.652 417.778 164.477 417.267 164.477C416.77 164.477 416.412 164.652 416.195 165.003C415.982 165.348 415.875 165.741 415.875 166.182ZM414.966 178L424.966 163.455H426.585L416.585 178H414.966Z" fill="#00FF11"/>
<path d="M358 178L364.333 171.303H372.394L377 165" stroke="#00FF11" stroke-width="2" stroke-linecap="round"/>
<path d="M372 164.5L378 163.5L379 169.5" stroke="#00FF11" stroke-width="2" stroke-linecap="round"/>
<circle cx="68" cy="58" r="35" fill="white"/>
<path d="M48 38H88V78H48V38Z" fill="#ED232A"/>
<path d="M55.001 45.0006H81.0039V71.0036H55.001V45.0006Z" fill="white"/>
<path d="M66 38H69.9989V78H66V38Z" fill="white"/>
<path d="M48 56.0051H88V60.0041H48V56.0051Z" fill="white"/>
<path d="M62.002 52.0012H74.002V64.0021H62.002V52.0012Z" fill="#004C8F"/>
<path d="M43.625 146.379C40.2028 146.379 34.7824 136.759 33 131.948V166H189V126.603C186.861 131.77 180.728 142.745 177.306 145.31C173.028 148.517 173.028 143.707 170.354 143.707C167.681 143.707 167.681 145.31 163.403 145.31C159.125 145.31 161.264 140.5 155.917 139.966C150.569 139.431 147.896 156 143.083 156C138.271 156 134.528 142.103 130.25 142.103C125.972 142.103 124.368 149.586 121.16 149.586C117.951 149.586 115.812 135.69 112.069 135.69C108.326 135.69 107.257 147.983 102.979 147.983C98.7014 147.983 94.9583 125 89.0764 125C83.1944 125 78.9167 143.707 73.5694 142.103C69.2917 140.821 67.5093 142.638 67.1528 143.707C65.7269 146.914 62.2333 153.328 59.6667 153.328C56.4583 153.328 53.7847 147.448 51.6458 145.31C49.5069 143.172 47.9028 146.379 43.625 146.379Z" fill="url(#paint0_linear_327_139)"/>
<path d="M34 131.948C35.7824 136.759 40.2028 146.379 43.625 146.379C47.9028 146.379 49.5069 143.172 51.6458 145.31C53.7847 147.448 56.4583 153.328 59.6667 153.328C62.2333 153.328 65.7269 146.914 67.1528 143.707C67.5093 142.638 69.2917 140.821 73.5694 142.103C78.9167 143.707 83.1944 125 89.0764 125C94.9583 125 98.7014 147.983 102.979 147.983C107.257 147.983 108.326 135.69 112.069 135.69C115.812 135.69 117.951 149.586 121.16 149.586C124.368 149.586 125.972 142.103 130.25 142.103C134.528 142.103 138.271 156 143.083 156C147.896 156 150.569 139.431 155.917 139.966C161.264 140.5 159.125 145.31 163.403 145.31C167.681 145.31 167.681 143.707 170.354 143.707C173.028 143.707 173.028 148.517 177.306 145.31C180.728 142.745 185.861 131.77 188 126.603" stroke="#00FF11" stroke-width="2" stroke-linecap="round"/>
<defs>
<filter id="filter0_b_327_139" x="-10" y="-10" width="486" height="226" filterUnits="userSpaceOnUse" color-interpolation-filters="sRGB">
<feFlood flood-opacity="0" result="BackgroundImageFix"/>
<feGaussianBlur in="BackgroundImageFix" stdDeviation="5"/>
<feComposite in2="SourceAlpha" operator="in" result="effect1_backgroundBlur_327_139"/>
<feBlend mode="normal" in="SourceGraphic" in2="effect1_backgroundBlur_327_139" result="shape"/>
</filter>
<linearGradient id="paint0_linear_327_139" x1="111" y1="130" x2="111" y2="166" gradientUnits="userSpaceOnUse">
<stop stop-color="#93FF9A" stop-opacity="0.8"/>
<stop offset="1" stop-color="#595A4B" stop-opacity="0"/>
</linearGradient>
</defs>
</svg>
