<svg width="466" height="206" viewBox="0 0 466 206" fill="none" xmlns="http://www.w3.org/2000/svg">
<g filter="url(#filter0_b_327_125)">
<path d="M3 43C3 20.9086 20.9086 3 43 3H423C445.091 3 463 20.9086 463 43V163C463 185.091 445.091 203 423 203H43C20.9086 203 3 185.091 3 163V43Z" fill="black" fill-opacity="0.6"/>
<path d="M43 1.5C20.0802 1.5 1.5 20.0802 1.5 43V163C1.5 185.92 20.0802 204.5 43 204.5H423C445.92 204.5 464.5 185.92 464.5 163V43C464.5 20.0802 445.92 1.5 423 1.5H43Z" stroke="white" stroke-width="3"/>
</g>
<path d="M125.152 58V36.1818H133.334C135.01 36.1818 136.416 36.473 137.553 37.0554C138.696 37.6378 139.559 38.4545 140.141 39.5057C140.731 40.5497 141.026 41.7678 141.026 43.1598C141.026 44.5589 140.727 45.7734 140.131 46.8033C139.541 47.826 138.671 48.6179 137.521 49.179C136.37 49.733 134.957 50.0099 133.281 50.0099H127.453V46.7287H132.748C133.728 46.7287 134.531 46.5937 135.156 46.3239C135.781 46.0469 136.242 45.6456 136.54 45.12C136.846 44.5874 136.999 43.9339 136.999 43.1598C136.999 42.3857 136.846 41.7251 136.54 41.1783C136.235 40.6243 135.77 40.2053 135.145 39.9212C134.52 39.63 133.714 39.4844 132.727 39.4844H129.104V58H125.152ZM136.423 48.1136L141.825 58H137.414L132.109 48.1136H136.423ZM154.616 36.1818V58H150.664V36.1818H154.616ZM164.896 58V36.1818H168.849V54.6868H178.458V58H164.896Z" fill="white"/>
<path d="M280.305 129.509L279.549 132.3H265.412L266.179 129.509H280.305ZM273.199 146L265.742 137.03L265.731 134.665H269.417C270.298 134.665 271.033 134.519 271.623 134.228C272.219 133.93 272.67 133.514 272.975 132.982C273.288 132.442 273.444 131.81 273.444 131.085C273.444 129.999 273.125 129.125 272.485 128.464C271.846 127.804 270.824 127.474 269.417 127.474H265.412L266.243 124.182H269.417C271.207 124.182 272.688 124.459 273.86 125.013C275.039 125.56 275.919 126.334 276.502 127.335C277.091 128.337 277.386 129.509 277.386 130.851C277.386 132.037 277.169 133.095 276.736 134.026C276.303 134.956 275.621 135.719 274.691 136.316C273.76 136.913 272.542 137.31 271.037 137.509L270.909 137.552L277.642 145.808V146H273.199ZM280.326 124.182L279.549 127.016L268.086 126.973L268.863 124.182H280.326ZM292.098 124.182V146H288.146V128.028H288.018L282.915 131.288V127.665L288.338 124.182H292.098ZM305.703 146.415C303.949 146.415 302.443 145.972 301.186 145.084C299.936 144.189 298.973 142.9 298.299 141.217C297.631 139.526 297.297 137.491 297.297 135.112C297.304 132.733 297.642 130.709 298.309 129.04C298.984 127.364 299.946 126.085 301.196 125.205C302.453 124.324 303.956 123.884 305.703 123.884C307.45 123.884 308.952 124.324 310.209 125.205C311.466 126.085 312.429 127.364 313.096 129.04C313.771 130.716 314.108 132.74 314.108 135.112C314.108 137.499 313.771 139.537 313.096 141.227C312.429 142.911 311.466 144.196 310.209 145.084C308.959 145.972 307.457 146.415 305.703 146.415ZM305.703 143.081C307.066 143.081 308.142 142.41 308.931 141.067C309.726 139.718 310.124 137.733 310.124 135.112C310.124 133.379 309.943 131.923 309.581 130.744C309.218 129.565 308.707 128.678 308.047 128.081C307.386 127.477 306.605 127.175 305.703 127.175C304.346 127.175 303.274 127.85 302.485 129.2C301.697 130.542 301.299 132.513 301.292 135.112C301.285 136.852 301.459 138.315 301.814 139.501C302.176 140.687 302.688 141.582 303.348 142.186C304.009 142.783 304.794 143.081 305.703 143.081ZM321.369 143.017L321.23 144.189C321.131 145.084 320.953 145.993 320.697 146.916C320.449 147.847 320.186 148.702 319.909 149.484C319.632 150.265 319.408 150.879 319.238 151.327H316.638C316.738 150.893 316.873 150.304 317.043 149.558C317.221 148.812 317.391 147.974 317.555 147.044C317.718 146.114 317.828 145.169 317.885 144.21L317.96 143.017H321.369ZM332.744 146.298C331.21 146.298 329.846 146.036 328.653 145.51C327.467 144.984 326.529 144.253 325.84 143.315C325.151 142.378 324.786 141.295 324.743 140.066H328.749C328.784 140.656 328.98 141.17 329.335 141.611C329.69 142.044 330.162 142.381 330.752 142.623C331.341 142.864 332.002 142.985 332.733 142.985C333.514 142.985 334.207 142.85 334.811 142.58C335.414 142.303 335.887 141.92 336.227 141.43C336.568 140.94 336.735 140.375 336.728 139.736C336.735 139.075 336.565 138.493 336.217 137.989C335.869 137.484 335.365 137.09 334.704 136.806C334.051 136.522 333.262 136.38 332.339 136.38H330.411V133.333H332.339C333.099 133.333 333.763 133.202 334.331 132.939C334.906 132.676 335.357 132.307 335.684 131.831C336.011 131.348 336.171 130.79 336.164 130.158C336.171 129.54 336.032 129.004 335.748 128.55C335.471 128.088 335.077 127.729 334.566 127.474C334.061 127.218 333.468 127.09 332.786 127.09C332.119 127.09 331.501 127.211 330.933 127.452C330.365 127.694 329.906 128.038 329.558 128.486C329.21 128.926 329.026 129.452 329.004 130.062H325.201C325.23 128.841 325.581 127.768 326.256 126.845C326.938 125.915 327.847 125.19 328.983 124.672C330.119 124.146 331.394 123.884 332.808 123.884C334.264 123.884 335.528 124.157 336.6 124.704C337.68 125.244 338.514 125.972 339.104 126.888C339.693 127.804 339.988 128.816 339.988 129.924C339.995 131.153 339.633 132.183 338.901 133.013C338.177 133.844 337.225 134.388 336.046 134.643V134.814C337.58 135.027 338.756 135.595 339.573 136.518C340.396 137.435 340.805 138.575 340.798 139.938C340.798 141.16 340.45 142.254 339.754 143.219C339.065 144.178 338.113 144.931 336.899 145.478C335.691 146.025 334.306 146.298 332.744 146.298ZM352.029 123.884C353.073 123.891 354.089 124.075 355.076 124.437C356.07 124.793 356.965 125.375 357.761 126.185C358.556 126.987 359.188 128.063 359.657 129.413C360.126 130.762 360.36 132.431 360.36 134.42C360.367 136.295 360.168 137.971 359.763 139.448C359.366 140.918 358.794 142.161 358.048 143.177C357.303 144.192 356.404 144.967 355.353 145.499C354.302 146.032 353.119 146.298 351.805 146.298C350.428 146.298 349.206 146.028 348.141 145.489C347.082 144.949 346.227 144.21 345.573 143.273C344.92 142.335 344.518 141.263 344.369 140.055H348.258C348.457 140.922 348.862 141.611 349.472 142.122C350.09 142.626 350.868 142.879 351.805 142.879C353.318 142.879 354.483 142.222 355.3 140.908C356.116 139.594 356.525 137.768 356.525 135.432H356.376C356.028 136.057 355.577 136.597 355.023 137.051C354.469 137.499 353.84 137.843 353.137 138.085C352.441 138.326 351.702 138.447 350.921 138.447C349.643 138.447 348.492 138.141 347.469 137.531C346.454 136.92 345.648 136.082 345.051 135.016C344.462 133.951 344.163 132.733 344.156 131.362C344.156 129.942 344.483 128.667 345.136 127.538C345.797 126.401 346.717 125.506 347.896 124.853C349.075 124.192 350.452 123.869 352.029 123.884ZM352.04 127.08C351.273 127.08 350.58 127.268 349.962 127.644C349.352 128.013 348.869 128.518 348.513 129.157C348.165 129.789 347.991 130.496 347.991 131.277C347.999 132.051 348.173 132.754 348.513 133.386C348.862 134.018 349.334 134.519 349.93 134.888C350.534 135.258 351.223 135.442 351.997 135.442C352.572 135.442 353.109 135.332 353.606 135.112C354.103 134.892 354.536 134.587 354.906 134.196C355.282 133.798 355.573 133.347 355.779 132.843C355.992 132.339 356.095 131.806 356.088 131.245C356.088 130.499 355.911 129.81 355.555 129.178C355.207 128.546 354.728 128.038 354.117 127.655C353.513 127.271 352.821 127.08 352.04 127.08ZM371.972 146.415C370.218 146.415 368.712 145.972 367.455 145.084C366.205 144.189 365.243 142.9 364.568 141.217C363.901 139.526 363.567 137.491 363.567 135.112C363.574 132.733 363.911 130.709 364.579 129.04C365.254 127.364 366.216 126.085 367.466 125.205C368.723 124.324 370.225 123.884 371.972 123.884C373.719 123.884 375.222 124.324 376.479 125.205C377.736 126.085 378.698 127.364 379.366 129.04C380.04 130.716 380.378 132.74 380.378 135.112C380.378 137.499 380.04 139.537 379.366 141.227C378.698 142.911 377.736 144.196 376.479 145.084C375.229 145.972 373.727 146.415 371.972 146.415ZM371.972 143.081C373.336 143.081 374.412 142.41 375.2 141.067C375.996 139.718 376.393 137.733 376.393 135.112C376.393 133.379 376.212 131.923 375.85 130.744C375.488 129.565 374.977 128.678 374.316 128.081C373.656 127.477 372.874 127.175 371.972 127.175C370.616 127.175 369.543 127.85 368.755 129.2C367.967 130.542 367.569 132.513 367.562 135.112C367.555 136.852 367.729 138.315 368.084 139.501C368.446 140.687 368.957 141.582 369.618 142.186C370.278 142.783 371.063 143.081 371.972 143.081ZM385.486 146.234C384.84 146.234 384.286 146.007 383.824 145.553C383.363 145.098 383.135 144.544 383.142 143.891C383.135 143.251 383.363 142.705 383.824 142.25C384.286 141.795 384.84 141.568 385.486 141.568C386.111 141.568 386.654 141.795 387.116 142.25C387.585 142.705 387.823 143.251 387.83 143.891C387.823 144.324 387.709 144.718 387.489 145.073C387.276 145.428 386.992 145.712 386.637 145.925C386.289 146.131 385.905 146.234 385.486 146.234ZM398.984 146.415C397.23 146.415 395.724 145.972 394.467 145.084C393.217 144.189 392.255 142.9 391.58 141.217C390.912 139.526 390.578 137.491 390.578 135.112C390.586 132.733 390.923 130.709 391.591 129.04C392.265 127.364 393.228 126.085 394.478 125.205C395.735 124.324 397.237 123.884 398.984 123.884C400.731 123.884 402.233 124.324 403.49 125.205C404.748 126.085 405.71 127.364 406.377 129.04C407.052 130.716 407.39 132.74 407.39 135.112C407.39 137.499 407.052 139.537 406.377 141.227C405.71 142.911 404.748 144.196 403.49 145.084C402.24 145.972 400.738 146.415 398.984 146.415ZM398.984 143.081C400.348 143.081 401.424 142.41 402.212 141.067C403.007 139.718 403.405 137.733 403.405 135.112C403.405 133.379 403.224 131.923 402.862 130.744C402.5 129.565 401.988 128.678 401.328 128.081C400.667 127.477 399.886 127.175 398.984 127.175C397.627 127.175 396.555 127.85 395.767 129.2C394.978 130.542 394.581 132.513 394.574 135.112C394.566 136.852 394.74 138.315 395.096 139.501C395.458 140.687 395.969 141.582 396.63 142.186C397.29 142.783 398.075 143.081 398.984 143.081ZM418.994 146.415C417.24 146.415 415.734 145.972 414.477 145.084C413.227 144.189 412.264 142.9 411.59 141.217C410.922 139.526 410.588 137.491 410.588 135.112C410.595 132.733 410.933 130.709 411.6 129.04C412.275 127.364 413.237 126.085 414.487 125.205C415.744 124.324 417.247 123.884 418.994 123.884C420.741 123.884 422.243 124.324 423.5 125.205C424.757 126.085 425.72 127.364 426.387 129.04C427.062 130.716 427.399 132.74 427.399 135.112C427.399 137.499 427.062 139.537 426.387 141.227C425.72 142.911 424.757 144.196 423.5 145.084C422.25 145.972 420.748 146.415 418.994 146.415ZM418.994 143.081C420.357 143.081 421.433 142.41 422.222 141.067C423.017 139.718 423.415 137.733 423.415 135.112C423.415 133.379 423.234 131.923 422.872 130.744C422.509 129.565 421.998 128.678 421.338 128.081C420.677 127.477 419.896 127.175 418.994 127.175C417.637 127.175 416.565 127.85 415.776 129.2C414.988 130.542 414.59 132.513 414.583 135.112C414.576 136.852 414.75 138.315 415.105 139.501C415.468 140.687 415.979 141.582 416.639 142.186C417.3 142.783 418.085 143.081 418.994 143.081Z" fill="white"/>
<path d="M124.761 83V68.4545H129.676C130.813 68.4545 131.745 68.6487 132.474 69.0369C133.204 69.4205 133.743 69.9484 134.094 70.6207C134.444 71.2931 134.619 72.0578 134.619 72.9148C134.619 73.7718 134.444 74.5317 134.094 75.1946C133.743 75.8575 133.206 76.3783 132.482 76.7571C131.757 77.1312 130.831 77.3182 129.705 77.3182H125.727V75.7273H129.648C130.424 75.7273 131.049 75.6136 131.523 75.3864C132.001 75.1591 132.347 74.8371 132.56 74.4205C132.777 73.9991 132.886 73.4972 132.886 72.9148C132.886 72.3324 132.777 71.8234 132.56 71.3878C132.342 70.9522 131.994 70.616 131.516 70.3793C131.037 70.1378 130.405 70.017 129.619 70.017H126.523V83H124.761ZM131.608 76.4659L135.188 83H133.142L129.619 76.4659H131.608ZM141.784 83.2273C140.733 83.2273 139.826 82.9953 139.064 82.5312C138.306 82.0625 137.721 81.4091 137.309 80.571C136.902 79.7282 136.699 78.7481 136.699 77.6307C136.699 76.5133 136.902 75.5284 137.309 74.6761C137.721 73.8191 138.294 73.1515 139.028 72.6733C139.767 72.1903 140.628 71.9489 141.613 71.9489C142.181 71.9489 142.743 72.0436 143.297 72.233C143.85 72.4223 144.355 72.7301 144.809 73.1562C145.264 73.5777 145.626 74.1364 145.896 74.8324C146.166 75.5284 146.301 76.3854 146.301 77.4034V78.1136H137.892V76.6648H144.596C144.596 76.0492 144.473 75.5 144.227 75.017C143.985 74.5341 143.64 74.1529 143.19 73.8736C142.745 73.5942 142.219 73.4545 141.613 73.4545C140.946 73.4545 140.368 73.6203 139.88 73.9517C139.397 74.2784 139.026 74.7045 138.765 75.2301C138.505 75.7557 138.375 76.3191 138.375 76.9205V77.8864C138.375 78.7102 138.517 79.4086 138.801 79.9815C139.09 80.5497 139.49 80.983 140.001 81.2812C140.512 81.5748 141.107 81.7216 141.784 81.7216C142.224 81.7216 142.622 81.66 142.977 81.5369C143.337 81.4091 143.647 81.2197 143.907 80.9688C144.168 80.7131 144.369 80.3958 144.511 80.017L146.13 80.4716C145.96 81.0208 145.673 81.5038 145.271 81.9205C144.868 82.3324 144.371 82.6544 143.779 82.8864C143.188 83.1136 142.522 83.2273 141.784 83.2273ZM150.527 68.4545V83H148.85V68.4545H150.527ZM153.597 83V72.0909H155.273V83H153.597ZM154.449 70.2727C154.122 70.2727 153.84 70.1615 153.604 69.9389C153.372 69.7164 153.256 69.4489 153.256 69.1364C153.256 68.8239 153.372 68.5563 153.604 68.3338C153.84 68.1113 154.122 68 154.449 68C154.776 68 155.055 68.1113 155.287 68.3338C155.524 68.5563 155.642 68.8239 155.642 69.1364C155.642 69.4489 155.524 69.7164 155.287 69.9389C155.055 70.1615 154.776 70.2727 154.449 70.2727ZM161.553 83.2557C160.862 83.2557 160.234 83.1255 159.671 82.8651C159.107 82.5999 158.66 82.2188 158.328 81.7216C157.997 81.2197 157.831 80.6136 157.831 79.9034C157.831 79.2784 157.954 78.7718 158.201 78.3835C158.447 77.9905 158.776 77.6828 159.188 77.4602C159.6 77.2377 160.054 77.072 160.551 76.9631C161.053 76.8494 161.558 76.7595 162.064 76.6932C162.727 76.608 163.265 76.544 163.676 76.5014C164.093 76.4541 164.396 76.3759 164.586 76.267C164.78 76.1581 164.877 75.9687 164.877 75.6989V75.642C164.877 74.9413 164.685 74.3968 164.301 74.0085C163.923 73.6203 163.347 73.4261 162.576 73.4261C161.775 73.4261 161.148 73.6013 160.694 73.9517C160.239 74.3021 159.919 74.6761 159.735 75.0739L158.144 74.5057C158.428 73.8428 158.807 73.3267 159.28 72.9574C159.758 72.5833 160.279 72.3229 160.843 72.1761C161.411 72.0246 161.97 71.9489 162.519 71.9489C162.869 71.9489 163.272 71.9915 163.726 72.0767C164.185 72.1572 164.628 72.3253 165.054 72.581C165.485 72.8366 165.843 73.2225 166.127 73.7386C166.411 74.2547 166.553 74.946 166.553 75.8125V83H164.877V81.5227H164.792C164.678 81.7595 164.489 82.0128 164.223 82.2827C163.958 82.5526 163.605 82.7822 163.165 82.9716C162.725 83.161 162.187 83.2557 161.553 83.2557ZM161.809 81.75C162.471 81.75 163.03 81.6198 163.485 81.3594C163.944 81.099 164.29 80.7628 164.522 80.3509C164.758 79.9389 164.877 79.5057 164.877 79.0511V77.517C164.806 77.6023 164.65 77.6804 164.408 77.7514C164.171 77.8177 163.897 77.8769 163.584 77.929C163.276 77.9763 162.976 78.0189 162.682 78.0568C162.393 78.09 162.159 78.1184 161.979 78.142C161.543 78.1989 161.136 78.2912 160.757 78.419C160.383 78.5421 160.08 78.7292 159.848 78.9801C159.621 79.2263 159.507 79.5625 159.507 79.9886C159.507 80.571 159.723 81.0114 160.154 81.3097C160.589 81.6032 161.141 81.75 161.809 81.75ZM171.288 76.4375V83H169.612V72.0909H171.232V73.7955H171.374C171.629 73.2415 172.018 72.7964 172.538 72.4602C173.059 72.1193 173.732 71.9489 174.555 71.9489C175.294 71.9489 175.94 72.1004 176.494 72.4034C177.048 72.7017 177.479 73.1562 177.787 73.767C178.095 74.3731 178.249 75.1402 178.249 76.0682V83H176.572V76.1818C176.572 75.3248 176.35 74.6572 175.905 74.179C175.46 73.696 174.849 73.4545 174.072 73.4545C173.537 73.4545 173.059 73.5705 172.638 73.8026C172.221 74.0346 171.892 74.3731 171.651 74.8182C171.409 75.2633 171.288 75.803 171.288 76.4375ZM185.743 83.2273C184.721 83.2273 183.84 82.9858 183.101 82.5028C182.363 82.0199 181.794 81.3546 181.397 80.5071C180.999 79.6596 180.8 78.6913 180.8 77.6023C180.8 76.4943 181.004 75.5166 181.411 74.669C181.823 73.8168 182.396 73.1515 183.13 72.6733C183.868 72.1903 184.73 71.9489 185.715 71.9489C186.482 71.9489 187.173 72.0909 187.789 72.375C188.404 72.6591 188.908 73.0568 189.301 73.5682C189.694 74.0795 189.938 74.6761 190.033 75.358H188.357C188.229 74.8608 187.945 74.4205 187.505 74.0369C187.069 73.6487 186.482 73.4545 185.743 73.4545C185.09 73.4545 184.517 73.625 184.025 73.9659C183.537 74.3021 183.156 74.7779 182.881 75.3935C182.611 76.0043 182.476 76.7216 182.476 77.5455C182.476 78.3883 182.609 79.1222 182.874 79.7472C183.144 80.3722 183.523 80.8575 184.01 81.2031C184.503 81.5488 185.08 81.7216 185.743 81.7216C186.179 81.7216 186.574 81.6458 186.929 81.4943C187.284 81.3428 187.585 81.125 187.831 80.8409C188.078 80.5568 188.253 80.2159 188.357 79.8182H190.033C189.938 80.4621 189.704 81.0421 189.33 81.5582C188.961 82.0696 188.471 82.4768 187.86 82.7798C187.254 83.0781 186.548 83.2273 185.743 83.2273ZM197.057 83.2273C196.006 83.2273 195.099 82.9953 194.337 82.5312C193.579 82.0625 192.995 81.4091 192.583 80.571C192.176 79.7282 191.972 78.7481 191.972 77.6307C191.972 76.5133 192.176 75.5284 192.583 74.6761C192.995 73.8191 193.568 73.1515 194.301 72.6733C195.04 72.1903 195.902 71.9489 196.887 71.9489C197.455 71.9489 198.016 72.0436 198.57 72.233C199.124 72.4223 199.628 72.7301 200.083 73.1562C200.537 73.5777 200.9 74.1364 201.169 74.8324C201.439 75.5284 201.574 76.3854 201.574 77.4034V78.1136H193.165V76.6648H199.87C199.87 76.0492 199.747 75.5 199.5 75.017C199.259 74.5341 198.913 74.1529 198.463 73.8736C198.018 73.5942 197.493 73.4545 196.887 73.4545C196.219 73.4545 195.641 73.6203 195.154 73.9517C194.671 74.2784 194.299 74.7045 194.039 75.2301C193.778 75.7557 193.648 76.3191 193.648 76.9205V77.8864C193.648 78.7102 193.79 79.4086 194.074 79.9815C194.363 80.5497 194.763 80.983 195.275 81.2812C195.786 81.5748 196.38 81.7216 197.057 81.7216C197.498 81.7216 197.895 81.66 198.25 81.5369C198.61 81.4091 198.92 81.2197 199.181 80.9688C199.441 80.7131 199.642 80.3958 199.784 80.017L201.404 80.4716C201.233 81.0208 200.947 81.5038 200.544 81.9205C200.142 82.3324 199.645 82.6544 199.053 82.8864C198.461 83.1136 197.796 83.2273 197.057 83.2273ZM211.738 68.4545V83H209.976V68.4545H211.738ZM216.718 76.4375V83H215.042V72.0909H216.661V73.7955H216.803C217.059 73.2415 217.447 72.7964 217.968 72.4602C218.489 72.1193 219.161 71.9489 219.985 71.9489C220.724 71.9489 221.37 72.1004 221.924 72.4034C222.478 72.7017 222.909 73.1562 223.217 73.767C223.524 74.3731 223.678 75.1402 223.678 76.0682V83H222.002V76.1818C222.002 75.3248 221.78 74.6572 221.335 74.179C220.889 73.696 220.279 73.4545 219.502 73.4545C218.967 73.4545 218.489 73.5705 218.067 73.8026C217.651 74.0346 217.322 74.3731 217.08 74.8182C216.839 75.2633 216.718 75.803 216.718 76.4375ZM230.86 83.2273C229.951 83.2273 229.149 82.9976 228.453 82.5384C227.757 82.0743 227.212 81.4209 226.819 80.5781C226.426 79.7306 226.23 78.7292 226.23 77.5739C226.23 76.428 226.426 75.4337 226.819 74.5909C227.212 73.7481 227.759 73.0971 228.46 72.6378C229.161 72.1785 229.97 71.9489 230.889 71.9489C231.599 71.9489 232.16 72.0672 232.572 72.304C232.989 72.536 233.306 72.8011 233.524 73.0994C233.746 73.393 233.919 73.6345 234.042 73.8239H234.184V68.4545H235.86V83H234.241V81.3239H234.042C233.919 81.5227 233.744 81.7737 233.517 82.0767C233.289 82.375 232.965 82.6425 232.544 82.8793C232.122 83.1113 231.561 83.2273 230.86 83.2273ZM231.088 81.7216C231.76 81.7216 232.328 81.5464 232.792 81.196C233.256 80.8409 233.609 80.3509 233.85 79.7259C234.092 79.0961 234.213 78.3693 234.213 77.5455C234.213 76.7311 234.094 76.0185 233.858 75.4077C233.621 74.7921 233.27 74.3139 232.806 73.973C232.342 73.6274 231.77 73.4545 231.088 73.4545C230.377 73.4545 229.786 73.6368 229.312 74.0014C228.843 74.3613 228.491 74.8513 228.254 75.4716C228.022 76.0871 227.906 76.7784 227.906 77.5455C227.906 78.322 228.024 79.0275 228.261 79.6619C228.502 80.2917 228.858 80.7936 229.326 81.1676C229.8 81.5369 230.387 81.7216 231.088 81.7216ZM246.038 78.5398V72.0909H247.714V83H246.038V81.1534H245.924C245.669 81.7074 245.271 82.1785 244.731 82.5668C244.191 82.9503 243.51 83.142 242.686 83.142C242.004 83.142 241.398 82.9929 240.868 82.6946C240.337 82.3916 239.921 81.937 239.618 81.331C239.315 80.7202 239.163 79.9508 239.163 79.0227V72.0909H240.839V78.9091C240.839 79.7045 241.062 80.339 241.507 80.8125C241.957 81.286 242.529 81.5227 243.225 81.5227C243.642 81.5227 244.066 81.4162 244.497 81.2031C244.932 80.9901 245.297 80.6634 245.591 80.223C245.889 79.7827 246.038 79.2216 246.038 78.5398ZM258.511 74.5341L257.006 74.9602C256.911 74.7093 256.771 74.4654 256.587 74.2287C256.407 73.9872 256.161 73.7884 255.848 73.6321C255.536 73.4759 255.135 73.3977 254.648 73.3977C253.98 73.3977 253.424 73.5516 252.979 73.8594C252.538 74.1624 252.318 74.5483 252.318 75.017C252.318 75.4337 252.47 75.7628 252.773 76.0043C253.076 76.2457 253.549 76.447 254.193 76.608L255.812 77.0057C256.788 77.2424 257.515 77.6046 257.993 78.0923C258.471 78.5753 258.71 79.1979 258.71 79.9602C258.71 80.5852 258.53 81.1439 258.17 81.6364C257.815 82.1288 257.318 82.517 256.679 82.8011C256.04 83.0852 255.296 83.2273 254.449 83.2273C253.336 83.2273 252.415 82.9858 251.686 82.5028C250.957 82.0199 250.495 81.3144 250.301 80.3864L251.892 79.9886C252.044 80.5758 252.33 81.0161 252.751 81.3097C253.178 81.6032 253.734 81.75 254.42 81.75C255.202 81.75 255.822 81.5843 256.281 81.2528C256.745 80.9167 256.977 80.5142 256.977 80.0455C256.977 79.6667 256.845 79.3494 256.58 79.0938C256.314 78.8333 255.907 78.6392 255.358 78.5114L253.54 78.0852C252.541 77.8485 251.807 77.4815 251.338 76.9844C250.874 76.4825 250.642 75.8551 250.642 75.1023C250.642 74.4867 250.815 73.9422 251.161 73.4688C251.511 72.9953 251.987 72.6236 252.588 72.3537C253.194 72.0838 253.881 71.9489 254.648 71.9489C255.727 71.9489 256.575 72.1856 257.19 72.6591C257.811 73.1326 258.251 73.7576 258.511 74.5341ZM265.978 72.0909V73.5114H260.324V72.0909H265.978ZM261.972 69.4773H263.648V79.875C263.648 80.3485 263.717 80.7036 263.854 80.9403C263.996 81.1723 264.176 81.3286 264.394 81.4091C264.616 81.4848 264.851 81.5227 265.097 81.5227C265.282 81.5227 265.433 81.5133 265.551 81.4943C265.67 81.4706 265.765 81.4517 265.836 81.4375L266.176 82.9432C266.063 82.9858 265.904 83.0284 265.701 83.071C265.497 83.1184 265.239 83.142 264.926 83.142C264.453 83.142 263.989 83.0402 263.534 82.8366C263.085 82.633 262.711 82.3229 262.412 81.9062C262.119 81.4896 261.972 80.964 261.972 80.3295V69.4773ZM268.499 83V72.0909H270.118V73.7386H270.232C270.431 73.1989 270.791 72.7609 271.311 72.4247C271.832 72.0885 272.419 71.9205 273.073 71.9205C273.196 71.9205 273.35 71.9228 273.534 71.9276C273.719 71.9323 273.859 71.9394 273.953 71.9489V73.6534C273.897 73.6392 273.766 73.6179 273.563 73.5895C273.364 73.5563 273.153 73.5398 272.931 73.5398C272.4 73.5398 271.927 73.651 271.51 73.8736C271.098 74.0914 270.772 74.3944 270.53 74.7827C270.293 75.1662 270.175 75.6042 270.175 76.0966V83H268.499ZM275.94 83V72.0909H277.616V83H275.94ZM276.793 70.2727C276.466 70.2727 276.184 70.1615 275.947 69.9389C275.715 69.7164 275.599 69.4489 275.599 69.1364C275.599 68.8239 275.715 68.5563 275.947 68.3338C276.184 68.1113 276.466 68 276.793 68C277.119 68 277.399 68.1113 277.631 68.3338C277.867 68.5563 277.986 68.8239 277.986 69.1364C277.986 69.4489 277.867 69.7164 277.631 69.9389C277.399 70.1615 277.119 70.2727 276.793 70.2727ZM285.26 83.2273C284.209 83.2273 283.302 82.9953 282.54 82.5312C281.783 82.0625 281.198 81.4091 280.786 80.571C280.379 79.7282 280.175 78.7481 280.175 77.6307C280.175 76.5133 280.379 75.5284 280.786 74.6761C281.198 73.8191 281.771 73.1515 282.505 72.6733C283.243 72.1903 284.105 71.9489 285.09 71.9489C285.658 71.9489 286.219 72.0436 286.773 72.233C287.327 72.4223 287.831 72.7301 288.286 73.1562C288.74 73.5777 289.103 74.1364 289.373 74.8324C289.642 75.5284 289.777 76.3854 289.777 77.4034V78.1136H281.368V76.6648H288.073C288.073 76.0492 287.95 75.5 287.703 75.017C287.462 74.5341 287.116 74.1529 286.667 73.8736C286.221 73.5942 285.696 73.4545 285.09 73.4545C284.422 73.4545 283.845 73.6203 283.357 73.9517C282.874 74.2784 282.502 74.7045 282.242 75.2301C281.981 75.7557 281.851 76.3191 281.851 76.9205V77.8864C281.851 78.7102 281.993 79.4086 282.277 79.9815C282.566 80.5497 282.966 80.983 283.478 81.2812C283.989 81.5748 284.583 81.7216 285.26 81.7216C285.701 81.7216 286.098 81.66 286.453 81.5369C286.813 81.4091 287.123 81.2197 287.384 80.9688C287.644 80.7131 287.846 80.3958 287.988 80.017L289.607 80.4716C289.436 81.0208 289.15 81.5038 288.748 81.9205C288.345 82.3324 287.848 82.6544 287.256 82.8864C286.664 83.1136 285.999 83.2273 285.26 83.2273ZM300.054 74.5341L298.549 74.9602C298.454 74.7093 298.314 74.4654 298.13 74.2287C297.95 73.9872 297.703 73.7884 297.391 73.6321C297.078 73.4759 296.678 73.3977 296.191 73.3977C295.523 73.3977 294.967 73.5516 294.522 73.8594C294.081 74.1624 293.861 74.5483 293.861 75.017C293.861 75.4337 294.013 75.7628 294.316 76.0043C294.619 76.2457 295.092 76.447 295.736 76.608L297.355 77.0057C298.331 77.2424 299.058 77.6046 299.536 78.0923C300.014 78.5753 300.253 79.1979 300.253 79.9602C300.253 80.5852 300.073 81.1439 299.713 81.6364C299.358 82.1288 298.861 82.517 298.222 82.8011C297.583 83.0852 296.839 83.2273 295.992 83.2273C294.879 83.2273 293.958 82.9858 293.229 82.5028C292.5 82.0199 292.038 81.3144 291.844 80.3864L293.435 79.9886C293.587 80.5758 293.873 81.0161 294.294 81.3097C294.721 81.6032 295.277 81.75 295.963 81.75C296.745 81.75 297.365 81.5843 297.824 81.2528C298.288 80.9167 298.52 80.5142 298.52 80.0455C298.52 79.6667 298.388 79.3494 298.123 79.0938C297.857 78.8333 297.45 78.6392 296.901 78.5114L295.083 78.0852C294.084 77.8485 293.35 77.4815 292.881 76.9844C292.417 76.4825 292.185 75.8551 292.185 75.1023C292.185 74.4867 292.358 73.9422 292.703 73.4688C293.054 72.9953 293.53 72.6236 294.131 72.3537C294.737 72.0838 295.424 71.9489 296.191 71.9489C297.27 71.9489 298.118 72.1856 298.733 72.6591C299.354 73.1326 299.794 73.7576 300.054 74.5341ZM308.629 83V68.4545H310.39V81.4375H317.151V83H308.629ZM319.651 83V72.0909H321.327V83H319.651ZM320.504 70.2727C320.177 70.2727 319.895 70.1615 319.658 69.9389C319.426 69.7164 319.31 69.4489 319.31 69.1364C319.31 68.8239 319.426 68.5563 319.658 68.3338C319.895 68.1113 320.177 68 320.504 68C320.83 68 321.11 68.1113 321.342 68.3338C321.578 68.5563 321.697 68.8239 321.697 69.1364C321.697 69.4489 321.578 69.7164 321.342 69.9389C321.11 70.1615 320.83 70.2727 320.504 70.2727ZM324.397 83V72.0909H326.017V73.7955H326.159C326.386 73.2131 326.753 72.7609 327.26 72.4389C327.766 72.1122 328.375 71.9489 329.085 71.9489C329.805 71.9489 330.404 72.1122 330.882 72.4389C331.365 72.7609 331.741 73.2131 332.011 73.7955H332.125C332.404 73.232 332.823 72.7846 333.382 72.4531C333.94 72.117 334.61 71.9489 335.392 71.9489C336.367 71.9489 337.165 72.2543 337.785 72.8651C338.405 73.4711 338.716 74.4157 338.716 75.6989V83H337.039V75.6989C337.039 74.8939 336.819 74.3187 336.379 73.973C335.939 73.6274 335.42 73.4545 334.824 73.4545C334.056 73.4545 333.462 73.6866 333.041 74.1506C332.619 74.6098 332.409 75.1922 332.409 75.8977V83H330.704V75.5284C330.704 74.9081 330.503 74.4086 330.1 74.0298C329.698 73.6463 329.18 73.4545 328.545 73.4545C328.109 73.4545 327.702 73.5705 327.324 73.8026C326.949 74.0346 326.646 74.3565 326.414 74.7685C326.187 75.1757 326.074 75.6468 326.074 76.1818V83H324.397ZM341.78 83V72.0909H343.456V83H341.78ZM342.632 70.2727C342.306 70.2727 342.024 70.1615 341.787 69.9389C341.555 69.7164 341.439 69.4489 341.439 69.1364C341.439 68.8239 341.555 68.5563 341.787 68.3338C342.024 68.1113 342.306 68 342.632 68C342.959 68 343.239 68.1113 343.471 68.3338C343.707 68.5563 343.826 68.8239 343.826 69.1364C343.826 69.4489 343.707 69.7164 343.471 69.9389C343.239 70.1615 342.959 70.2727 342.632 70.2727ZM351.271 72.0909V73.5114H345.617V72.0909H351.271ZM347.265 69.4773H348.941V79.875C348.941 80.3485 349.01 80.7036 349.147 80.9403C349.289 81.1723 349.469 81.3286 349.687 81.4091C349.909 81.4848 350.144 81.5227 350.39 81.5227C350.575 81.5227 350.726 81.5133 350.844 81.4943C350.963 81.4706 351.058 81.4517 351.129 81.4375L351.469 82.9432C351.356 82.9858 351.197 83.0284 350.994 83.071C350.79 83.1184 350.532 83.142 350.219 83.142C349.746 83.142 349.282 83.0402 348.827 82.8366C348.378 82.633 348.004 82.3229 347.705 81.9062C347.412 81.4896 347.265 80.964 347.265 80.3295V69.4773ZM358.249 83.2273C357.197 83.2273 356.291 82.9953 355.528 82.5312C354.771 82.0625 354.186 81.4091 353.774 80.571C353.367 79.7282 353.163 78.7481 353.163 77.6307C353.163 76.5133 353.367 75.5284 353.774 74.6761C354.186 73.8191 354.759 73.1515 355.493 72.6733C356.232 72.1903 357.093 71.9489 358.078 71.9489C358.646 71.9489 359.207 72.0436 359.761 72.233C360.315 72.4223 360.82 72.7301 361.274 73.1562C361.729 73.5777 362.091 74.1364 362.361 74.8324C362.631 75.5284 362.766 76.3854 362.766 77.4034V78.1136H354.357V76.6648H361.061C361.061 76.0492 360.938 75.5 360.692 75.017C360.45 74.5341 360.105 74.1529 359.655 73.8736C359.21 73.5942 358.684 73.4545 358.078 73.4545C357.411 73.4545 356.833 73.6203 356.345 73.9517C355.862 74.2784 355.491 74.7045 355.23 75.2301C354.97 75.7557 354.839 76.3191 354.839 76.9205V77.8864C354.839 78.7102 354.982 79.4086 355.266 79.9815C355.554 80.5497 355.955 80.983 356.466 81.2812C356.977 81.5748 357.571 81.7216 358.249 81.7216C358.689 81.7216 359.087 81.66 359.442 81.5369C359.802 81.4091 360.112 81.2197 360.372 80.9688C360.633 80.7131 360.834 80.3958 360.976 80.017L362.595 80.4716C362.425 81.0208 362.138 81.5038 361.736 81.9205C361.333 82.3324 360.836 82.6544 360.244 82.8864C359.652 83.1136 358.987 83.2273 358.249 83.2273ZM369.435 83.2273C368.526 83.2273 367.723 82.9976 367.027 82.5384C366.331 82.0743 365.786 81.4209 365.393 80.5781C365 79.7306 364.804 78.7292 364.804 77.5739C364.804 76.428 365 75.4337 365.393 74.5909C365.786 73.7481 366.333 73.0971 367.034 72.6378C367.735 72.1785 368.545 71.9489 369.463 71.9489C370.173 71.9489 370.734 72.0672 371.146 72.304C371.563 72.536 371.88 72.8011 372.098 73.0994C372.321 73.393 372.493 73.6345 372.616 73.8239H372.759V68.4545H374.435V83H372.815V81.3239H372.616C372.493 81.5227 372.318 81.7737 372.091 82.0767C371.864 82.375 371.539 82.6425 371.118 82.8793C370.696 83.1113 370.135 83.2273 369.435 83.2273ZM369.662 81.7216C370.334 81.7216 370.902 81.5464 371.366 81.196C371.83 80.8409 372.183 80.3509 372.425 79.7259C372.666 79.0961 372.787 78.3693 372.787 77.5455C372.787 76.7311 372.669 76.0185 372.432 75.4077C372.195 74.7921 371.845 74.3139 371.381 73.973C370.917 73.6274 370.344 73.4545 369.662 73.4545C368.952 73.4545 368.36 73.6368 367.886 74.0014C367.418 74.3613 367.065 74.8513 366.828 75.4716C366.596 76.0871 366.48 76.7784 366.48 77.5455C366.48 78.322 366.598 79.0275 366.835 79.6619C367.077 80.2917 367.432 80.7936 367.901 81.1676C368.374 81.5369 368.961 81.7216 369.662 81.7216Z" fill="white"/>
<path d="M381.768 175.443V166.068H383.359V175.443H381.768ZM377.876 171.551V169.96H387.251V171.551H377.876ZM389.978 178V176.722L394.779 171.466C395.343 170.85 395.807 170.315 396.172 169.861C396.536 169.402 396.806 168.971 396.981 168.568C397.161 168.161 397.251 167.735 397.251 167.29C397.251 166.778 397.128 166.336 396.882 165.962C396.64 165.588 396.309 165.299 395.887 165.095C395.466 164.892 394.993 164.79 394.467 164.79C393.908 164.79 393.421 164.906 393.004 165.138C392.592 165.365 392.272 165.685 392.045 166.097C391.823 166.509 391.711 166.991 391.711 167.545H390.035C390.035 166.693 390.232 165.945 390.625 165.301C391.018 164.657 391.553 164.155 392.23 163.795C392.912 163.436 393.676 163.256 394.524 163.256C395.376 163.256 396.131 163.436 396.789 163.795C397.448 164.155 397.964 164.641 398.338 165.251C398.712 165.862 398.899 166.542 398.899 167.29C398.899 167.825 398.802 168.348 398.608 168.859C398.418 169.366 398.087 169.932 397.613 170.557C397.145 171.177 396.493 171.935 395.66 172.83L392.393 176.324V176.438H399.154V178H389.978ZM406.633 178.199C405.8 178.199 405.049 178.033 404.382 177.702C403.714 177.37 403.179 176.916 402.777 176.338C402.374 175.76 402.154 175.102 402.116 174.364H403.821C403.887 175.022 404.185 175.566 404.716 175.997C405.251 176.423 405.89 176.636 406.633 176.636C407.23 176.636 407.76 176.497 408.224 176.217C408.693 175.938 409.06 175.554 409.325 175.067C409.595 174.574 409.73 174.018 409.73 173.398C409.73 172.763 409.59 172.197 409.311 171.7C409.036 171.198 408.657 170.803 408.174 170.514C407.691 170.225 407.14 170.079 406.52 170.074C406.074 170.069 405.618 170.138 405.149 170.28C404.68 170.417 404.294 170.595 403.991 170.813L402.343 170.614L403.224 163.455H410.781V165.017H404.701L404.19 169.307H404.275C404.574 169.07 404.948 168.874 405.397 168.717C405.847 168.561 406.316 168.483 406.804 168.483C407.694 168.483 408.487 168.696 409.183 169.122C409.884 169.544 410.433 170.121 410.831 170.855C411.233 171.589 411.434 172.427 411.434 173.369C411.434 174.297 411.226 175.126 410.809 175.855C410.397 176.58 409.829 177.152 409.105 177.574C408.38 177.991 407.556 178.199 406.633 178.199ZM421.67 175.273V174.506C421.67 173.975 421.779 173.49 421.997 173.05C422.22 172.605 422.542 172.25 422.963 171.984C423.389 171.715 423.905 171.58 424.511 171.58C425.127 171.58 425.643 171.715 426.06 171.984C426.476 172.25 426.791 172.605 427.004 173.05C427.217 173.49 427.324 173.975 427.324 174.506V175.273C427.324 175.803 427.215 176.291 426.997 176.736C426.784 177.176 426.467 177.531 426.045 177.801C425.629 178.066 425.117 178.199 424.511 178.199C423.896 178.199 423.377 178.066 422.956 177.801C422.535 177.531 422.215 177.176 421.997 176.736C421.779 176.291 421.67 175.803 421.67 175.273ZM423.119 174.506V175.273C423.119 175.713 423.223 176.108 423.432 176.459C423.64 176.804 424 176.977 424.511 176.977C425.009 176.977 425.359 176.804 425.562 176.459C425.771 176.108 425.875 175.713 425.875 175.273V174.506C425.875 174.065 425.776 173.672 425.577 173.327C425.378 172.976 425.023 172.801 424.511 172.801C424.014 172.801 423.657 172.976 423.439 173.327C423.226 173.672 423.119 174.065 423.119 174.506ZM414.426 166.949V166.182C414.426 165.652 414.535 165.166 414.753 164.726C414.975 164.281 415.297 163.926 415.719 163.661C416.145 163.391 416.661 163.256 417.267 163.256C417.883 163.256 418.399 163.391 418.815 163.661C419.232 163.926 419.547 164.281 419.76 164.726C419.973 165.166 420.08 165.652 420.08 166.182V166.949C420.08 167.479 419.971 167.967 419.753 168.412C419.54 168.852 419.223 169.207 418.801 169.477C418.384 169.742 417.873 169.875 417.267 169.875C416.652 169.875 416.133 169.742 415.712 169.477C415.29 169.207 414.971 168.852 414.753 168.412C414.535 167.967 414.426 167.479 414.426 166.949ZM415.875 166.182V166.949C415.875 167.389 415.979 167.785 416.188 168.135C416.396 168.481 416.756 168.653 417.267 168.653C417.764 168.653 418.115 168.481 418.318 168.135C418.527 167.785 418.631 167.389 418.631 166.949V166.182C418.631 165.741 418.531 165.348 418.332 165.003C418.134 164.652 417.778 164.477 417.267 164.477C416.77 164.477 416.412 164.652 416.195 165.003C415.982 165.348 415.875 165.741 415.875 166.182ZM414.966 178L424.966 163.455H426.585L416.585 178H414.966Z" fill="#00FF11"/>
<path d="M348 178L354.333 171.303H362.394L367 165" stroke="#00FF11" stroke-width="2" stroke-linecap="round"/>
<path d="M362 164.5L368 163.5L369 169.5" stroke="#00FF11" stroke-width="2" stroke-linecap="round"/>
<circle cx="68" cy="58" r="35" fill="white"/>
<path fill-rule="evenodd" clip-rule="evenodd" d="M80.4925 75.1521C79.014 76.1971 77.0707 76.3542 75.5652 75.675C75.5652 75.675 75.1549 75.5183 74.7718 75.1003C74.4424 74.7072 66.1207 65.7446 66.1207 65.7446L66.0937 65.7181C68.6673 66.1626 71.487 64.9871 72.9377 62.8441C74.3876 60.8056 74.3341 57.905 72.9651 55.8665C71.3231 53.6456 68.1196 52.9141 65.4369 53.2533C60.7835 53.8807 57.4439 57.8266 56.4044 61.9563C55.3358 66.659 56.1031 71.1017 57.7738 75.2827C58.1559 76.1718 58.6763 77.0861 59.3062 77.869C54.4055 75.8317 50.0804 72.0687 47.8089 67.0247C45.2905 61.5893 45.3452 54.7171 48.3292 49.2033C50.6829 44.9439 54.8433 40.9979 59.9901 39.3252C65.3821 37.2088 72.6364 37.6529 77.8928 40.4751C84.2703 43.5062 89.088 51.0593 89.1154 57.8009C89.3345 64.7781 86.1032 71.1017 80.4925 75.1521Z" fill="#BFA161"/>
<path fill-rule="evenodd" clip-rule="evenodd" d="M62.5906 77.7919C60.2096 75.3346 58.2929 72.1471 59.7444 68.8285C61.03 66.2937 62.1798 63.7062 62.7276 60.7791C62.9467 63.8372 64.8908 66.5549 65.8203 69.482C66.1763 70.8927 66.2041 72.3565 65.6294 73.8194C64.9999 75.4134 63.9866 76.7718 62.7819 78L62.5906 77.7919Z" fill="#BFA161"/>
<path d="M42.625 145.379C39.2028 145.379 33.7824 135.759 32 130.948V165H188V125.603C185.861 130.77 179.728 141.745 176.306 144.31C172.028 147.517 172.028 142.707 169.354 142.707C166.681 142.707 166.681 144.31 162.403 144.31C158.125 144.31 160.264 139.5 154.917 138.966C149.569 138.431 146.896 155 142.083 155C137.271 155 133.528 141.103 129.25 141.103C124.972 141.103 123.368 148.586 120.16 148.586C116.951 148.586 114.812 134.69 111.069 134.69C107.326 134.69 106.257 146.983 101.979 146.983C97.7014 146.983 93.9583 124 88.0764 124C82.1944 124 77.9167 142.707 72.5694 141.103C68.2917 139.821 66.5093 141.638 66.1528 142.707C64.7269 145.914 61.2333 152.328 58.6667 152.328C55.4583 152.328 52.7847 146.448 50.6458 144.31C48.5069 142.172 46.9028 145.379 42.625 145.379Z" fill="url(#paint0_linear_327_125)"/>
<path d="M33 130.948C34.7824 135.759 39.2028 145.379 42.625 145.379C46.9028 145.379 48.5069 142.172 50.6458 144.31C52.7847 146.448 55.4583 152.328 58.6667 152.328C61.2333 152.328 64.7269 145.914 66.1528 142.707C66.5093 141.638 68.2917 139.821 72.5694 141.103C77.9167 142.707 82.1944 124 88.0764 124C93.9583 124 97.7014 146.983 101.979 146.983C106.257 146.983 107.326 134.69 111.069 134.69C114.812 134.69 116.951 148.586 120.16 148.586C123.368 148.586 124.972 141.103 129.25 141.103C133.528 141.103 137.271 155 142.083 155C146.896 155 149.569 138.431 154.917 138.966C160.264 139.5 158.125 144.31 162.403 144.31C166.681 144.31 166.681 142.707 169.354 142.707C172.028 142.707 172.028 147.517 176.306 144.31C179.728 141.745 184.861 130.77 187 125.603" stroke="#00FF11" stroke-width="2" stroke-linecap="round"/>
<defs>
<filter id="filter0_b_327_125" x="-10" y="-10" width="486" height="226" filterUnits="userSpaceOnUse" color-interpolation-filters="sRGB">
<feFlood flood-opacity="0" result="BackgroundImageFix"/>
<feGaussianBlur in="BackgroundImageFix" stdDeviation="5"/>
<feComposite in2="SourceAlpha" operator="in" result="effect1_backgroundBlur_327_125"/>
<feBlend mode="normal" in="SourceGraphic" in2="effect1_backgroundBlur_327_125" result="shape"/>
</filter>
<linearGradient id="paint0_linear_327_125" x1="110" y1="129" x2="110" y2="165" gradientUnits="userSpaceOnUse">
<stop stop-color="#93FF9A" stop-opacity="0.8"/>
<stop offset="1" stop-color="#595A4B" stop-opacity="0"/>
</linearGradient>
</defs>
</svg>
