<svg width="38" height="27" viewBox="0 0 38 27" fill="none" xmlns="http://www.w3.org/2000/svg">
<path d="M1.625 0.798416C1.20923 0.798416 0.793455 0.957107 0.476072 1.27449C-0.158693 1.90926 -0.158693 2.93758 0.476072 3.57234L11.8511 14.9474C12.1843 15.2806 12.6287 15.4536 13.1158 15.4187C13.5856 15.3853 14.0172 15.1505 14.2997 14.7728L18.0511 9.77242L33.0732 25.0947C33.708 25.7295 34.7363 25.7295 35.3711 25.0947C36.0059 24.46 36.0059 23.4316 35.3711 22.7969L19.0239 6.14949C18.6906 5.81624 18.2463 5.64168 17.7592 5.67818C17.2894 5.7115 16.8578 5.94636 16.5753 6.32405L12.8239 11.3244L2.77392 1.27449C2.45654 0.957107 2.04077 0.798416 1.625 0.798416Z" fill="#EE3461"/>
<path d="M36.3502 19.262L34.7482 22.259L32.6282 24.379L29.6312 25.98L37.3712 27L36.3502 19.262Z" fill="#EE3461"/>
</svg>
