<svg width="28" height="32" viewBox="0 0 28 32" fill="none" xmlns="http://www.w3.org/2000/svg">
<path d="M26.7303 23.3248L26.7299 23.3244C26.6606 23.25 26.5854 23.171 26.5052 23.0869C25.9221 22.4753 25.0772 21.5891 24.379 20.1755C23.582 18.5614 22.995 16.3173 22.995 13C22.995 8.64358 19.9485 5.14434 15.7954 4.2816L14.9988 4.11612V3.3025V2C14.9988 1.4473 14.5509 1 14 1C13.4492 1 13.0013 1.4473 13.0013 2V3.3025V4.11612L12.2047 4.2816C8.05154 5.14434 5.00504 8.64358 5.00504 13C5.00504 16.3173 4.41812 18.5614 3.62104 20.1755C2.92293 21.5891 2.078 22.4753 1.49492 23.0869C1.41476 23.171 1.33955 23.2499 1.27036 23.3242C1.07439 23.5349 0.998548 23.7685 1.00002 23.9933C1.00002 23.9933 1.00002 23.9933 1.00002 23.9934M26.7303 23.3248L1.00002 23.9934M26.7303 23.3248C26.9254 23.5343 27.0016 23.7681 27.0001 23.9934L27.0001 23.9939C26.9968 24.5288 26.5809 25 25.9938 25H2.00629C1.41971 25 1.00366 24.5293 1.00002 23.9934M26.7303 23.3248L1.00002 23.9934M16.8275 29C16.4158 30.1654 15.3048 31 14 31C12.6953 31 11.5843 30.1654 11.1725 29H16.8275Z" stroke="#5F626B" stroke-width="2"/>
</svg>
