<svg width="21" height="20" viewBox="0 0 21 20" fill="none" xmlns="http://www.w3.org/2000/svg">
<path d="M19.4068 9.64343L19.4067 9.64347L19.4116 9.65156C19.5573 9.88996 19.5398 10.1499 19.4263 10.3151L19.416 10.3301L19.4068 10.3458L18.3717 12.114L18.3032 12.231V12.3666V14.3504C18.3032 14.6267 18.1601 14.8665 17.9351 14.9915L17.935 14.9914L17.9263 14.9965L16.2228 15.9884L16.1071 16.0557L16.0406 16.1718L15.0271 17.94L15.0271 17.94L15.0238 17.9459C14.8988 18.1709 14.659 18.314 14.3827 18.314H12.3558H12.2212L12.1049 18.3815L10.3626 19.3925C10.2307 19.4651 10.0993 19.5 9.98383 19.5C9.86835 19.5 9.73696 19.4651 9.60503 19.3925L7.8628 18.3815L7.74642 18.314H7.61186H5.62803C5.35175 18.314 5.11197 18.1709 4.98694 17.9459L4.98699 17.9458L4.98332 17.9394L3.9914 16.2144L3.92397 16.0971L3.80659 16.0298L2.0384 15.0163L2.03842 15.0163L2.03258 15.0131C1.80753 14.888 1.66442 14.6483 1.66442 14.372V12.3235V12.1885L1.59651 12.0719L0.607382 10.3731C0.53489 10.2413 0.5 10.11 0.5 9.99461C0.5 9.87922 0.53489 9.74792 0.607382 9.61608L1.59651 7.91736L1.66442 7.80073V7.66577V5.61725C1.66442 5.34096 1.80753 5.10119 2.03258 4.97616L2.0326 4.9762L2.0384 4.97288L3.80659 3.9594L3.92397 3.89213L3.9914 3.77484L4.98332 2.04977L4.98337 2.0498L4.98694 2.04336C5.11197 1.81831 5.35174 1.6752 5.62803 1.6752H7.61186H7.74642L7.8628 1.60767L9.6049 0.596821C9.84018 0.467723 10.1275 0.467726 10.3628 0.59683L12.1049 1.60767L12.2212 1.6752H12.3558H14.3827C14.659 1.6752 14.8988 1.81831 15.0238 2.04336L15.0238 2.04338L15.0271 2.04918L16.0406 3.81737L16.1071 3.93348L16.2228 4.00082L17.9263 4.99273L17.9263 4.99282L17.9351 4.99773C18.1601 5.12275 18.3032 5.36253 18.3032 5.63881V7.62264V7.75822L18.3717 7.87523L19.4068 9.64343Z" stroke="#5F626B"/>
<path d="M13.6918 7.66903L13.3295 8.90483H6.42614L6.78835 7.66903H13.6918ZM10.4531 16L6.55398 11.2273L6.53267 10.3324H8.47159C8.97585 10.3324 9.40554 10.2614 9.76065 10.1193C10.1158 9.97372 10.3874 9.7571 10.5756 9.46946C10.7638 9.17827 10.858 8.8125 10.858 8.37216C10.858 7.7223 10.6626 7.21271 10.272 6.84339C9.88139 6.47053 9.28125 6.28409 8.47159 6.28409H6.42614L6.78835 5.09091H8.47159C9.33807 5.09091 10.0483 5.23473 10.6023 5.52237C11.1598 5.80646 11.5717 6.19709 11.8381 6.69425C12.108 7.18785 12.2429 7.74716 12.2429 8.37216C12.2429 8.93679 12.1186 9.45703 11.87 9.93288C11.625 10.4052 11.2308 10.7852 10.6875 11.0728C10.1477 11.3604 9.43395 11.5043 8.54616 11.5043H8.5142L12.1151 15.9148V16H10.4531ZM13.6918 5.09091L13.3295 6.3267L7.89631 6.28409L8.25852 5.09091H13.6918Z" fill="#5F626B"/>
</svg>
