<svg width="30" height="30" viewBox="0 0 30 30" fill="none" xmlns="http://www.w3.org/2000/svg">
<rect width="30" height="30" rx="3" fill="#5A2989"/>
<path d="M22.1457 17.3376C21.7175 17.3478 21.2916 17.2717 20.8938 17.1139C20.496 16.9561 20.1345 16.7198 19.8311 16.4194C19.5277 16.1189 19.2887 15.7605 19.1286 15.3657C18.9684 14.971 18.8904 14.5481 18.8992 14.1226C18.8992 12.327 20.2493 10.8071 22.1434 10.8033C24.0352 10.8033 25.299 12.3247 25.299 14.1218C25.299 15.9189 24.0399 17.3376 22.1473 17.3376H22.1457ZM22.389 9C20.718 9 19.6127 9.60779 18.8845 10.5307V9.20311H16.8574V23H18.8845V17.6056C19.6127 18.5184 20.718 19.1378 22.389 19.1378C25.1832 19.1378 27.3245 17.1098 27.3245 14.1141C27.3245 11.1176 25.1832 9 22.389 9Z" fill="white"/>
<path fill-rule="evenodd" clip-rule="evenodd" d="M6.43555 14.4207C7.29239 13.8212 7.98836 13.0223 8.46258 12.0938V14.6871C8.46258 16.3012 9.35252 17.2341 10.858 17.2341C12.3635 17.2341 13.6234 16.3028 13.6234 14.6871V9.20776H15.6543V18.9455H13.6157V17.7153C13.2877 18.2134 12.3573 19.144 10.5456 19.144C7.86333 19.144 6.44176 17.4797 6.44176 15.1158L6.43788 14.4191L6.43555 14.4207Z" fill="white"/>
<path d="M2.00233 13.5812V15.5351C3.70942 15.5348 5.34791 14.8674 6.56393 13.6769C7.16269 13.0928 7.63835 12.396 7.96315 11.6272C8.28796 10.8584 8.45541 10.033 8.45573 9.19922H6.46756C6.46603 9.7755 6.34957 10.3458 6.12491 10.877C5.90026 11.4083 5.57186 11.8901 5.15869 12.2945C4.31691 13.1193 3.18216 13.5815 2 13.5812H2.00233Z" fill="white"/>
</svg>
