<svg width="70" height="70" viewBox="0 0 70 70" fill="none" xmlns="http://www.w3.org/2000/svg">
<g id="4017334_circle_logo_media_network_social_icon 1" clip-path="url(#clip0_343_446)">
<path id="Vector" d="M35 70C54.33 70 70 54.33 70 35C70 15.67 54.33 0 35 0C15.67 0 0 15.67 0 35C0 54.33 15.67 70 35 70Z" fill="#25D366"/>
<g id="Group">
<path id="Vector_2" d="M50.5017 19.4087C46.3881 15.2907 40.9188 13.0223 35.0913 13.0195C23.0852 13.0195 13.3115 22.7911 13.3077 34.8021C13.3055 38.6423 14.309 42.39 16.2148 45.692L13.125 56.9806L24.6723 53.952C27.8545 55.6862 31.4366 56.6011 35.0826 56.6027H35.0919C47.098 56.6027 56.8701 46.8295 56.875 34.8191C56.8777 28.9992 54.6131 23.5261 50.5017 19.4087ZM35.0919 52.9234H35.0848C31.8347 52.9223 28.6486 52.0495 25.8683 50.4001L25.2071 50.0074L18.3548 51.805L20.183 45.1244L19.7526 44.4375C17.9397 41.5555 16.9821 38.2245 16.9843 34.8021C16.9876 24.82 25.1103 16.6984 35.0973 16.6984C39.9339 16.6995 44.479 18.5856 47.898 22.0085C51.3166 25.4309 53.1978 29.9792 53.1967 34.8174C53.1934 44.8012 45.0707 52.9234 35.0919 52.9234ZM45.0231 39.3636C44.4784 39.0907 41.8026 37.7755 41.3033 37.5923C40.804 37.4107 40.4425 37.3205 40.0794 37.8652C39.7163 38.4098 38.6734 39.6365 38.3551 39.9996C38.0379 40.3627 37.7207 40.4087 37.176 40.1358C36.6313 39.8629 34.878 39.2887 32.8005 37.4337C31.1817 35.9916 30.0891 34.2077 29.7719 33.663C29.4547 33.1183 29.738 32.8246 30.0109 32.5528C30.2559 32.3089 30.5555 31.9173 30.8273 31.5991C31.0991 31.2808 31.1899 31.0538 31.3715 30.6912C31.553 30.3281 31.4628 30.0104 31.3261 29.738C31.1894 29.4652 30.1011 26.786 29.6483 25.6961C29.2059 24.6346 28.7574 24.7784 28.4238 24.762C28.1055 24.7467 27.743 24.7423 27.3804 24.7423C27.0178 24.7423 26.4277 24.8785 25.929 25.4237C25.4308 25.9684 24.0242 27.2848 24.0242 29.965C24.0242 32.6436 25.9744 35.2325 26.2467 35.5951C26.5191 35.9577 30.0847 41.4565 35.5447 43.8141C36.843 44.3741 37.8574 44.7093 38.6477 44.9609C39.9514 45.3759 41.1381 45.3163 42.0766 45.1763C43.1222 45.0205 45.2966 43.86 45.751 42.5885C46.2044 41.3176 46.2044 40.2282 46.0671 40.0007C45.9298 39.7727 45.5667 39.6365 45.0231 39.3636Z" fill="white"/>
</g>
</g>
<defs>
<clipPath id="clip0_343_446">
<rect width="70" height="70" fill="white"/>
</clipPath>
</defs>
</svg>
