<svg width="50" height="50" viewBox="0 0 50 50" fill="none" xmlns="http://www.w3.org/2000/svg">
<circle cx="25" cy="25" r="24.25" stroke="white" stroke-width="1.5"/>
<path fill-rule="evenodd" clip-rule="evenodd" d="M24.9946 13C28.1714 13 31.1607 14.2375 33.4054 16.4875C35.65 18.7375 37 21.7214 37 24.8982C37 31.4554 31.5464 36.7911 24.9946 36.7911H24.9893C22.9964 36.7911 21.0411 36.2929 19.3054 35.3446L13 37L14.6875 30.8393C13.6482 29.0339 13.1018 26.9875 13.1018 24.8929C13.1018 18.3357 18.4375 13 24.9946 13ZM28.0327 26.3546L30.6578 27.4796C30.7792 27.5324 30.8784 27.6259 30.9383 27.744C30.9983 27.8621 31.0152 27.9973 30.9861 28.1265L30.4236 30.5641C30.395 30.688 30.3252 30.7987 30.2256 30.8778C30.126 30.957 30.0024 31.0001 29.8752 31C23.8727 31 19 26.1366 19 20.1248C19 19.9976 19.0431 19.8741 19.1222 19.7746C19.2014 19.675 19.312 19.6052 19.4359 19.5766L21.8735 19.0141C22.002 18.9849 22.1368 19.0014 22.2544 19.0609C22.3721 19.1204 22.4653 19.219 22.518 19.3399L23.643 21.9649C23.6911 22.077 23.7013 22.2017 23.6721 22.3201C23.6429 22.4385 23.5759 22.5442 23.4813 22.6212L22.061 23.7837C22.9212 25.6082 24.3895 27.0764 26.214 27.9367L27.3765 26.5163C27.4536 26.4219 27.5592 26.3551 27.6776 26.3259C27.796 26.2967 27.9206 26.3068 28.0327 26.3546Z" fill="white"/>
</svg>
