<svg width="50" height="50" viewBox="0 0 50 50" fill="none" xmlns="http://www.w3.org/2000/svg">
<circle cx="25" cy="25" r="24.25" stroke="white" stroke-width="1.5"/>
<path d="M38.8501 18.1293C38.523 16.8976 37.5591 15.9274 36.3353 15.5982C34.1171 15 25.2222 15 25.2222 15C25.2222 15 16.3274 15 14.1092 15.5982C12.8854 15.9275 11.9215 16.8976 11.5944 18.1293C11 20.362 11 25.0202 11 25.0202C11 25.0202 11 29.6784 11.5944 31.9111C11.9215 33.1429 12.8854 34.0726 14.1092 34.4018C16.3274 35 25.2222 35 25.2222 35C25.2222 35 34.117 35 36.3353 34.4018C37.5591 34.0726 38.523 33.1429 38.8501 31.9111C39.4445 29.6784 39.4445 25.0202 39.4445 25.0202C39.4445 25.0202 39.4445 20.362 38.8501 18.1293ZM22.3131 29.2495V20.7909L29.7474 25.0203L22.3131 29.2495Z" fill="white"/>
</svg>
